<svg width="1200" height="1200" xmlns="http://www.w3.org/2000/svg">
 <g>
  <title>Layer 1</title>
  <path id="svg_2" fill="#ffffff" d="m707,319.73946c-22.811,-2.946 -44.945,-8.332 -68,-9.911c-37.337,-2.556 -75.345,0.966 -112,8.311c-14.205,2.846 -28.207,6.854 -42,11.256c-3.585,1.144 -11.8,1.829 -12.498,6.477c-0.537,3.583 1.75,8.499 2.843,11.867c11.872,36.598 59.625,13.738 83.655,32.394c17.47,13.562 17.267,43.707 37,53.606c14.024,7.035 27.986,-1.395 41,-6.6c8.241,-3.297 18.406,-6.167 24.815,-12.585c5.099,-5.107 6.52,-12.291 8.993,-18.815c4.471,-11.794 8.952,-23.636 14.45,-35c6.488,-13.407 17.573,-26.826 21.742,-41m24.184,8.121c-4.256,2.033 -7.361,9.028 -9.759,12.879c-8.137,13.071 -14.669,27.473 -19.73,42c-2.416,6.935 -3.564,15.629 5.309,18.343c12.071,3.693 33.44,-2.127 45.996,-3.629c5.977,-0.714 14.753,-3.037 19.957,0.801c5.685,4.193 7.486,12.261 10.054,18.485c5.2,12.603 11.142,24.813 17.236,37c3.371,6.743 8.062,17.969 17.748,14.257c10.998,-4.215 16.416,-30.955 19.429,-41.257c3.198,-10.933 6.504,-21.821 8.775,-33c0.746,-3.668 2.95,-9.265 1.484,-12.907c-2.676,-6.646 -15.768,-11.327 -21.683,-14.669c-21.564,-12.184 -44.018,-21.713 -67,-30.823c-6.04,-2.394 -21.549,-10.472 -27.816,-7.48m-283.184,14.879c-43.409,20.545 -83.33,42.863 -121,73c-15.04,12.033 -32.839,25.155 -44,41c11.874,5.627 26.168,17.585 40,14.862c14.299,-2.815 27.08,-20.297 38,-29.248c17.101,-14.018 34.67,-27.566 53,-39.944c9.328,-6.299 23.671,-12.557 30.362,-21.685c5.98,-8.16 7.537,-28.694 3.638,-37.985m713,104c-3.16,-16.746 -8.59,-32.023 -20.17,-45c-46.15,-51.702 -158.679,-63.755 -204.316,-6c-19.118,24.194 -24.949,54.955 -21.564,85c1.142,10.138 2.667,26.003 12.065,32.005c9.354,5.974 26.191,5.994 36.985,5.995c28.814,0.002 55.798,-2.746 83,-13.064c19.74,-7.486 38.39,-18.41 55,-31.36c7.96,-6.204 15.19,-15.796 24,-20.588c9.65,-5.249 24.34,-4.361 35,-6.988m-679,-49.572c-15.884,1.922 -29.26,10.476 -43,18.291c-28.274,16.082 -55.948,35.337 -80,57.281c-9.764,8.909 -26.389,19.76 -30.211,33c-2.995,10.377 2.829,19.725 6.608,29c6.066,14.891 11.984,29.805 17.259,45c2.895,8.339 4.629,18.545 9.477,25.985c4.719,7.241 12.617,9.595 20.867,8.922c12.595,-1.029 26.111,-13.693 37,-19.767c22.907,-12.779 47.634,-22.586 73,-29.256c13.994,-3.679 31.121,-3.345 39.532,-16.884c9.267,-14.916 23.274,-35.797 26.95,-53c3.526,-16.501 -0.804,-37.707 -4.082,-54c-2.178,-10.821 -3.875,-27.814 -12.585,-35.471c-12.302,-10.813 -45.3,-10.978 -60.815,-9.101m395,3.572c-4.539,33.677 -21.716,68.925 -36.753,99c-72.412,144.824 -222.948,224.198 -381.247,228.015c-52.784,1.272 -107.108,-6.581 -156,-27.442c-34.057,-14.532 -65.865,-34.97 -90.83,-62.573c-11.384,-12.587 -18.772,-28.866 -30.17,-41c-4.603,7.886 -14.894,22.671 -14.512,32c0.219,5.365 5.395,11.638 8.204,16c8.398,13.038 18.357,25.049 29.308,36c40.655,40.658 96.249,64.179 152,75.4c158.416,31.883 349.778,-15.315 456.246,-142.4c36.734,-43.847 62.513,-97.182 74.961,-153c4.64,-20.809 17.691,-52.504 -11.207,-60m-146,22.424c-13.177,1.731 -27.062,-0.044 -40,3.503c-13.263,3.635 -25.443,13.488 -37,20.649c-19.383,12.009 -44.334,22.567 -59.907,39.425c-14.222,15.397 -24.02,37.838 -34.374,55.999c-5.925,10.393 -12.017,20.708 -18.116,31c-2.818,4.756 -7.405,10.468 -8.313,15.999c-1.684,10.263 17.499,13.232 24.71,15.668c23.049,7.787 45.279,18.719 67,29.58c7.111,3.555 19.904,13.999 28,13.042c12.357,-1.462 27.916,-16.161 38,-22.959c32.179,-21.692 60.659,-49.724 84.349,-80.33c6.981,-9.018 19.793,-21.688 22.447,-33c1.922,-8.197 -8.567,-22.532 -11.796,-30c-5.498,-12.716 -11.383,-25.264 -16.85,-38c-2.933,-6.834 -5.374,-14.773 -12.154,-18.772c-6.76,-3.986 -18.468,-2.792 -25.996,-1.804z"/>
  <path transform="translate(-738 -282) translate(293 -117)" id="svg_3" fill="#ffffff" d="m934,127.73946c9.22,12.492 36.47,23.642 52,19.366c11.93,-3.285 21.38,-12.117 31,-19.366l0,-2c-27.51,-7.731 -55.65,-3.646 -83,2z"/>
  <path id="svg_4" fill="#ffffff" d="m266,476.73946c-16.422,23.591 -36.214,44.464 -51.576,69c-4.358,6.961 -14.035,17.698 -14.793,26c-0.384,4.203 3.115,8.55 5.089,12c5.427,9.488 11.668,18.64 18.719,27c22.465,26.635 51.716,46.173 83.561,59.85c11.313,4.858 23.729,10.496 36,12.15c-0.006,-54.517 -18.965,-111.545 -44.691,-159c-6.163,-11.368 -12.748,-22.273 -19.979,-33c-3.429,-5.087 -6.701,-11.249 -12.33,-14m618.418,78.067c-6.311,3.796 -10.281,22.207 -13.279,28.933c-9.808,22.006 -22.128,42.983 -35.472,63c-4.062,6.093 -18.087,19.576 -17.013,27c0.628,4.34 4.917,8.513 7.32,12c5.148,7.469 9.911,15.223 14.577,23c12.835,21.393 23.181,45.066 26.163,70c2.052,17.149 -2.218,34.887 -12.153,49c-2.26,3.21 -13.23,13.292 -9.849,17.397c3.036,3.685 13.34,1.398 17.288,0.599c17.269,-3.493 33.509,-10.549 49,-18.778c67.753,-35.989 104.029,-118.919 77.305,-192.218c-12.111,-33.217 -40.08,-58.819 -72.305,-72.139c-6.298,-2.603 -25.142,-11.667 -31.582,-7.794m-524.418,132.933c89.045,18.369 185.821,13.369 269,-26c-4.733,-4.783 -12.017,-7.263 -18,-10.247c-14.257,-7.11 -29.194,-13.277 -44,-19.152c-27.554,-10.933 -62.888,-27.178 -93,-26.586c-33.986,0.669 -68.398,29.274 -90.999,51.985c-8.637,8.678 -17.727,18.851 -23.001,30m-275,-24c3.932,10.149 15.5114,19.272 24,25.764c27.692,21.178 72.363,33.522 106,19.236l0,-1c-22.893,-16.97 -39.679,-39.716 -54,-64c-10.743,4.066 -19.961,11.455 -31,15.305c-15.2204,5.308 -29.316,4.705 -45,4.695m109,228c70.318,13.101 145.555,-6.514 200,-53.131c14.542,-12.451 36.788,-31.141 43,-49.869c-9.561,-2.826 -21.041,-1.107 -31,-2.286c-25.691,-3.041 -52.106,-6.447 -77,-13.75c-10.395,-3.049 -20.722,-6.205 -31,-9.631c-3.983,-1.327 -9.762,-4.525 -14,-3.21c-10.34,3.207 -20.585,17.45 -28,24.877c-21.218,21.252 -38.005,47.714 -50.306,75l-11.694,32z"/>
 </g>

</svg>