<?xml version="1.0" standalone="yes"?>
<svg xmlns="http://www.w3.org/2000/svg" width="668" height="610">
<path style="fill:#030c0e; stroke:none;" d="M0 0L0 610L668 610L668 0L0 0z"/>
<path style="fill:#8a7b43; stroke:none;" d="M278 15C268.097 27.8857 257.997 59.2241 278 69L279 49C283.048 54.2919 283.982 59.4557 284 66C300.481 53.0959 292.753 25.8596 278 15z"/>
<path style="fill:#666652; stroke:none;" d="M337.667 15.3333L338.333 15.6667L337.667 15.3333z"/>
<path style="fill:#8a7b43; stroke:none;" d="M333 66L335 49C340.164 54.3442 339 62.0771 339 69C352.043 61.9699 352.244 40.9562 347.127 29C345.694 25.6504 342.544 16.6358 337.997 16.6358C333.916 16.6358 330.209 24.0333 328.454 27C322.056 37.8135 320.777 58.5414 333 66z"/>
<path style="fill:#666652; stroke:none;" d="M323 42L323 49L324 49L323 42M407 81C426.874 79.3636 430 61.332 430 45C408.886 48.1624 407 62.9562 407 81M186 46C186 61.681 190.389 79.3749 209 81L209 80L207 80C210.995 77.3706 210.041 73.427 210 69C209.879 55.9414 198.796 46.0538 186 46M222 46C222 65.1634 225.432 92.113 247 99L239 81C248.105 87.5289 253.493 98.0365 258 108L260 108C266.523 80.6003 251.145 51.0184 222 46M357 108L358 108L378 81L371 99C391.767 89.6467 395 66.0735 395 46C363.721 50.2327 351.826 80.228 357 108M333 58L332 67C334.641 64.6925 334.296 61.0891 333 58z"/>
<path style="fill:#8a7b43; stroke:none;" d="M308 64C290.934 83.5967 279.855 107.655 286.63 134C289.248 144.184 295.094 155.381 305 160L307 100L309 100L313 159C345.596 140.001 332.568 83.8243 308 64z"/>
<path style="fill:#666652; stroke:none;" d="M278 65L278 71L279 71L278 65z"/>
<path style="fill:#8a7b43; stroke:none;" d="M149 68C150.221 96.3533 168.802 107.252 194 112C193.439 84.7979 174.498 71.2393 149 68z"/>
<path style="fill:#666652; stroke:none;" d="M338 68L338 71L340 70L340 69L338 68M464 68L464 69L467 71C467.951 68.4935 466.348 68.2942 464 68z"/>
<path style="fill:#8a7b43; stroke:none;" d="M423 111C447.885 110.931 465.909 94.0104 467 69C441.729 69.0168 423 85.4744 423 111z"/>
<path style="fill:#666652; stroke:none;" d="M119 95C119 115.027 128.76 128.998 150 129C149.998 110.262 138.887 95.4236 119 95z"/>
<path style="fill:#8a7b43; stroke:none;" d="M209 98C209 121.846 213.73 146.684 240 155L228 118L255 165C257.83 160.276 257.002 154.34 257 149C256.99 122.845 234.185 101.706 209 98M361 165L384 132L377 155C402.286 144.885 408 123.9 408 99C383.962 99.5121 364.08 121.465 360.326 144C359.165 150.965 360.981 158.019 361 165z"/>
<path style="fill:#666652; stroke:none;" d="M307 100L307 103L308 103L309 100L307 100M193 101L193 106L194 106L193 101M330 103L330 106L331 106L330 103M443.667 106.333L444.333 106.667L443.667 106.333M422 107L424 112L422 107M284 110L284 124L285 124L284 110M407 115L407 119L408 119L407 115M305 117L305 123L306 123L305 117M168 122L168 133L169 133C169.003 129.013 168.402 125.332 172 123L168 122z"/>
<path style="fill:#8a7b43; stroke:none;" d="M417 160C441.119 159.8 448 143.502 448 122C425.813 125.277 417 138.878 417 160M169 123C169 144.79 176.041 159.505 200 160C200 140.268 191.065 123.47 169 123z"/>
<path style="fill:#666652; stroke:none;" d="M312 126C312 133.358 308.432 155.134 314 160L312 126M362.333 135.667L362.667 136.333L362.333 135.667M86 138C86.3967 154.952 97.8339 160.803 113 162C112.864 145.608 101.585 138.043 86 138z"/>
<path style="fill:#8a7b43; stroke:none;" d="M126 138C127.878 161.796 133.609 178.204 156 190L146 168C155.946 175.106 162.361 185.975 169 196C180.384 168.871 152.11 139.193 126 138z"/>
<path style="fill:#666652; stroke:none;" d="M486 138L486 139L488 149L489 149L489 138L486 138M502 162C517.726 161.323 528.238 154.665 529 138C513.166 138.68 502.743 144.954 502 162M419.333 139.667L419.667 140.333L419.333 139.667z"/>
<path style="fill:#8a7b43; stroke:none;" d="M446 196L467 171L460 189C482.626 180.716 488 160.725 488 139C455.629 139.69 446 169.386 446 196z"/>
<path style="fill:#666652; stroke:none;" d="M236.333 140.667L236.667 141.333L236.333 140.667M126 142L126 147L127 147L126 142M257 146L257 155L258 155L257 146M416 149C416 152.995 414.274 159.987 419 161L419 160L416 149M360 156L360 162L361 162L360 156M191 159L191 160L194 160L191 159z"/>
<path style="fill:#8a7b43; stroke:none;" d="M225.667 163.333L226.333 163.667L225.667 163.333z"/>
<path style="fill:#666652; stroke:none;" d="M390.667 163.333L391.333 163.667L390.667 163.333z"/>
<path style="fill:#fcf1d8; stroke:none;" d="M226 164C236.973 190.218 263.029 195.322 281.961 213.171C299.152 229.377 306.183 258.166 308 281L309 281C310.834 257.953 317.756 229.511 335.015 213.09C354.069 194.961 379.887 190.551 391 164C379.484 166.409 374.843 175.475 366 182.32C356.11 189.976 344.024 194.117 334 201.609C326.706 207.06 322.389 214.857 316 221C315.92 211.305 314.9 203.285 318.873 194C322.686 185.09 330.802 177.356 333 168C321.674 171.585 311.103 183.21 309 195L308 195C305.975 183.647 295.603 171.094 284 169C286.496 176.819 292.931 182.717 296.627 190C301.85 200.294 301.475 208.936 301 220C294.212 214.069 289.38 206.37 282 200.924C272.245 193.727 260.677 189.462 251 182.101C242.264 175.455 237.616 165.717 226 164z"/>
<path style="fill:#666652; stroke:none;" d="M229.667 164.333L230.333 164.667L229.667 164.333z"/>
<path style="fill:#8a7b43; stroke:none;" d="M387.667 164.333L388.333 164.667L387.667 164.333M226 165L227 166L226 165z"/>
<path style="fill:#666652; stroke:none;" d="M232.667 165.333L233.333 165.667L232.667 165.333z"/>
<path style="fill:#8a7b43; stroke:none;" d="M390 165L391 166L390 165z"/>
<path style="fill:#fcf1d8; stroke:none;" d="M205 167C183.386 215.834 251.279 239.915 285 252C278.706 235.754 256.938 233.022 243 226.031C219.166 214.076 207.003 193.098 207 167L205 167z"/>
<path style="fill:#8a7b43; stroke:none;" d="M227 167L228 168L227 167M410 167L410 171L411 171L413 170L410 167z"/>
<path style="fill:#666652; stroke:none;" d="M56 168L56 169L73 169L56 168z"/>
<path style="fill:#8a7b43; stroke:none;" d="M283 168L283 170L285 168L283 168z"/>
<path style="fill:#666652; stroke:none;" d="M536 168L536 169L555 169L536 168z"/>
<path style="fill:#8a7b43; stroke:none;" d="M54 169C63.4255 196.636 88.8197 218.808 119 211C112.593 203.47 99.138 194.793 90 191L90 190C106.26 192.401 119.443 202.634 133 211C124.197 172.965 86.4867 169 54 169z"/>
<path style="fill:#666652; stroke:none;" d="M168.333 169.667L168.667 170.333L168.333 169.667z"/>
<path style="fill:#8a7b43; stroke:none;" d="M228 169L229 170L228 169z"/>
<path style="fill:#fcf1d8; stroke:none;" d="M411 169C405.406 192.487 401.254 209.494 379 223.557C364.041 233.01 339.112 233.254 332 252C359.263 243.373 390.498 232.351 407.56 208C413.944 198.889 420.35 178.121 411 169z"/>
<path style="fill:#8a7b43; stroke:none;" d="M484 210L524 191L524 192C515.637 195.704 500.526 203.945 496 212C524.347 214.237 555.43 200.345 561 169C533.004 169 485.973 171.551 484 210M327 170L328 171L327 170M377 171L378 172L377 171M230 172L231 173L230 172z"/>
<path style="fill:#666652; stroke:none;" d="M331 172L332 173L331 172M376 172L377 173L376 172z"/>
<path style="fill:#8a7b43; stroke:none;" d="M386 172L387 173L386 172M241 173L242 174L241 173z"/>
<path style="fill:#666652; stroke:none;" d="M207 174L207 178L208 178L207 174M242 174L243 175L242 174z"/>
<path style="fill:#8a7b43; stroke:none;" d="M414 174L414 177L415 177L414 174M232 175L233 176L232 175z"/>
<path style="fill:#666652; stroke:none;" d="M243 175L244 176L243 175M320 175L321 176L320 175z"/>
<path style="fill:#8a7b43; stroke:none;" d="M329 175L330 176L329 175z"/>
<path style="fill:#666652; stroke:none;" d="M201.333 176.667L201.667 177.333L201.333 176.667z"/>
<path style="fill:#8a7b43; stroke:none;" d="M319 176L320 177L319 176z"/>
<path style="fill:#666652; stroke:none;" d="M170 177L170 195L171 195L170 177M318 177L319 178L318 177M409 177L409 180L410 180L409 177z"/>
<path style="fill:#8a7b43; stroke:none;" d="M201.333 178.667L201.667 179.333L201.333 178.667z"/>
<path style="fill:#666652; stroke:none;" d="M246 178L247 179L246 178z"/>
<path style="fill:#8a7b43; stroke:none;" d="M289 178L290 179L289 178M327 178L328 179L327 178z"/>
<path style="fill:#666652; stroke:none;" d="M247 179L248 180L247 179z"/>
<path style="fill:#8a7b43; stroke:none;" d="M381 179L382 180L381 179M236 180L237 181L236 180M248 180L249 181L248 180M380 180L381 181L380 180M415 180L415 188L416 188L415 180z"/>
<path style="fill:#666652; stroke:none;" d="M237 181L238 182L237 181z"/>
<path style="fill:#8a7b43; stroke:none;" d="M291 181L292 182L291 181M301 181L302 182L301 181M315 181L316 182L315 181z"/>
<path style="fill:#666652; stroke:none;" d="M325 181L326 182L325 181z"/>
<path style="fill:#8a7b43; stroke:none;" d="M379 181L380 182L379 181z"/>
<path style="fill:#666652; stroke:none;" d="M238 182L239 183L238 182z"/>
<path style="fill:#8a7b43; stroke:none;" d="M239 183L240 184L239 183z"/>
<path style="fill:#666652; stroke:none;" d="M252 183L253 184L252 183z"/>
<path style="fill:#8a7b43; stroke:none;" d="M208.333 184.667L208.667 185.333L208.333 184.667M240 184L241 185L240 184z"/>
<path style="fill:#666652; stroke:none;" d="M293 184L294 185L293 184z"/>
<path style="fill:#8a7b43; stroke:none;" d="M303 184L304 185L303 184M313 184L314 185L313 184M323 184L324 185L323 184M363 184L364 185L363 184M408.333 184.667L408.667 185.333L408.333 184.667M201.333 185.667L201.667 186.333L201.333 185.667M241 185L242 186L241 185z"/>
<path style="fill:#666652; stroke:none;" d="M322 186L323 187L322 186z"/>
<path style="fill:#8a7b43; stroke:none;" d="M374 186L375 187L374 186M258 187L259 188L258 187M295 187L296 188L295 187M358 187L359 188L358 187M373 187L374 188L373 187z"/>
<path style="fill:#666652; stroke:none;" d="M209.333 188.667L209.667 189.333L209.333 188.667z"/>
<path style="fill:#8a7b43; stroke:none;" d="M296 189L297 190L296 189M306 189L307 190L306 189z"/>
<path style="fill:#666652; stroke:none;" d="M310 189L311 190L310 189z"/>
<path style="fill:#8a7b43; stroke:none;" d="M355 189L356 190L355 189z"/>
<path style="fill:#666652; stroke:none;" d="M90 190L90 191L94 191L90 190M368 191L369 192L368 191z"/>
<path style="fill:#8a7b43; stroke:none;" d="M210.333 192.667L210.667 193.333L210.333 192.667z"/>
<path style="fill:#666652; stroke:none;" d="M267.667 192.333L268.333 192.667L267.667 192.333M414.333 192.667L414.667 193.333L414.333 192.667z"/>
<path style="fill:#8a7b43; stroke:none;" d="M269 193L270 194L269 193M347 193L348 194L347 193M253 194L254 195L253 194z"/>
<path style="fill:#666652; stroke:none;" d="M271 194L272 195L271 194z"/>
<path style="fill:#8a7b43; stroke:none;" d="M308 194L309 195L308 194z"/>
<path style="fill:#666652; stroke:none;" d="M318 194L319 195L318 194z"/>
<path style="fill:#8a7b43; stroke:none;" d="M345 194L346 195L345 194M363 194L364 195L363 194z"/>
<path style="fill:#666652; stroke:none;" d="M273 195L274 196L273 195M343 195L344 196L343 195M413.333 195.667L413.667 196.333L413.333 195.667z"/>
<path style="fill:#8a7b43; stroke:none;" d="M299 196L300 197L299 196z"/>
<path style="fill:#666652; stroke:none;" d="M360 196L361 197L360 196z"/>
<path style="fill:#8a7b43; stroke:none;" d="M212 197L213 198L212 197M276 197L277 198L276 197M340 197L341 198L340 197z"/>
<path style="fill:#666652; stroke:none;" d="M358 197L359 198L358 197z"/>
<path style="fill:#8a7b43; stroke:none;" d="M204 198L205 199L204 198M260 198L261 199L260 198z"/>
<path style="fill:#666652; stroke:none;" d="M338 198L339 199L338 198z"/>
<path style="fill:#8a7b43; stroke:none;" d="M356 198L357 199L356 198M412 198L413 199L412 198M262 199L263 200L262 199z"/>
<path style="fill:#666652; stroke:none;" d="M300.333 199.667L300.667 200.333L300.333 199.667z"/>
<path style="fill:#8a7b43; stroke:none;" d="M337 199L338 200L337 199M354 199L355 200L354 199M316.333 200.667L316.667 201.333L316.333 200.667z"/>
<path style="fill:#666652; stroke:none;" d="M265 201L266 202L265 201z"/>
<path style="fill:#8a7b43; stroke:none;" d="M282 201L283 202L282 201M215 202L216 203L215 202z"/>
<path style="fill:#666652; stroke:none;" d="M267 202L268 203L267 202z"/>
<path style="fill:#8a7b43; stroke:none;" d="M401 202L402 203L401 202M207 204L208 205L207 204z"/>
<path style="fill:#666652; stroke:none;" d="M301 204L301 213L302 213L301 204M457 204L457 205L463 206L457 204z"/>
<path style="fill:#fcf1d8; stroke:none;" d="M154 205C168.675 225.832 193.999 238.557 213 255C194.239 255 175.272 257.883 159 267.915C140.868 279.094 127.645 296.73 105 299L105 301C112.336 301.927 120.811 303.307 128 300.895C146.378 294.73 158.246 276.833 177 270.344C184.95 267.593 193.54 265.104 202 265.004C254.718 264.377 284.445 302.523 308 345L309 345C331.321 297.816 378.767 248.632 436 268.799C455.762 275.763 468.705 294.423 488 300.895C495.441 303.391 504.4 301.96 512 301L512 299C489.525 298.02 475.68 279.724 458 268.706C441.491 258.418 422.163 255 403 255L403 254C422.575 244.262 450.378 223.58 462 205C445.034 205.399 426.469 226.389 413 235.717C391.23 250.794 365.224 257.683 344 273.159C328.68 284.329 320.781 301.275 307 313C304.3 301.509 291.765 289.001 283 281.59C257.649 260.156 225.165 250.682 198 231.576C185.48 222.77 169.852 205.054 154 205z"/>
<path style="fill:#666652; stroke:none;" d="M287 205L288 206L287 205M344 205L345 206L344 205M455 205L456 206L455 205M218 206L219 207L218 206M288 206L289 207L288 206z"/>
<path style="fill:#8a7b43; stroke:none;" d="M315 206L315 214L316 214L315 206z"/>
<path style="fill:#666652; stroke:none;" d="M328 206L329 207L328 206M408 206L409 207L408 206M275 207L276 208L275 207M289 207L290 208L289 207z"/>
<path style="fill:#8a7b43; stroke:none;" d="M327 207L328 208L327 207M290 208L291 209L290 208M326 208L327 209L326 208z"/>
<path style="fill:#666652; stroke:none;" d="M459 208L460 209L459 208z"/>
<path style="fill:#8a7b43; stroke:none;" d="M167 209L168 210L167 209z"/>
<path style="fill:#666652; stroke:none;" d="M210 209L211 210L210 209M325 209L326 210L325 209M406 209L407 210L406 209z"/>
<path style="fill:#8a7b43; stroke:none;" d="M449 209L450 210L449 209M158 210L159 211L158 210M337 210L338 211L337 210M405 210L406 211L405 210z"/>
<path style="fill:#666652; stroke:none;" d="M117.667 211.333L118.333 211.667L117.667 211.333z"/>
<path style="fill:#8a7b43; stroke:none;" d="M159 211L160 212L159 211M280 211L281 212L280 211M336 211L337 212L336 211z"/>
<path style="fill:#666652; stroke:none;" d="M446 211L447 212L446 211z"/>
<path style="fill:#8a7b43; stroke:none;" d="M160 212L161 213L160 212M171 212L172 213L171 212z"/>
<path style="fill:#666652; stroke:none;" d="M281 212L282 213L281 212M335 212L336 213L335 212z"/>
<path style="fill:#8a7b43; stroke:none;" d="M161 213L162 214L161 213z"/>
<path style="fill:#666652; stroke:none;" d="M282 213L283 214L282 213z"/>
<path style="fill:#8a7b43; stroke:none;" d="M301.333 213.667L301.667 214.333L301.333 213.667z"/>
<path style="fill:#666652; stroke:none;" d="M443 213L444 214L443 213z"/>
<path style="fill:#8a7b43; stroke:none;" d="M162 214L163 215L162 214z"/>
<path style="fill:#666652; stroke:none;" d="M174 214L175 215L174 214M283 214L284 215L283 214z"/>
<path style="fill:#8a7b43; stroke:none;" d="M295 214L296 215L295 214M321 214L322 215L321 214z"/>
<path style="fill:#666652; stroke:none;" d="M402 214L403 215L402 214z"/>
<path style="fill:#8a7b43; stroke:none;" d="M215 215L216 216L215 215M296 215L297 216L296 215M401 215L402 216L401 215M285 216L286 217L285 216z"/>
<path style="fill:#666652; stroke:none;" d="M331 216L332 217L331 216z"/>
<path style="fill:#8a7b43; stroke:none;" d="M400 216L401 217L400 216M178 217L179 218L178 217z"/>
<path style="fill:#666652; stroke:none;" d="M316 217L316 220L317 220L316 217z"/>
<path style="fill:#8a7b43; stroke:none;" d="M330 217L331 218L330 217M399 217L400 218L399 217M230 218L231 219L230 218z"/>
<path style="fill:#666652; stroke:none;" d="M318 218L319 219L318 218M299.667 219.333L300.333 219.667L299.667 219.333z"/>
<path style="fill:#8a7b43; stroke:none;" d="M397 219L398 220L397 219M435 219L436 220L435 219M448 219L449 220L448 219z"/>
<path style="fill:#666652; stroke:none;" d="M61 220L61 221L77 221L61 220z"/>
<path style="fill:#8a7b43; stroke:none;" d="M182 220L183 221L182 220M316.667 220.333L317.333 220.667L316.667 220.333z"/>
<path style="fill:#666652; stroke:none;" d="M328 220L329 221L328 220z"/>
<path style="fill:#8a7b43; stroke:none;" d="M396 220L397 221L396 220M447 220L448 221L447 220z"/>
<path style="fill:#666652; stroke:none;" d="M536 220L536 221L549 221L536 220z"/>
<path style="fill:#8a7b43; stroke:none;" d="M35 229C50.2984 259.217 92.0422 249.81 117 243C114.85 235.946 106.22 231.078 100 227.782C79.9116 217.135 54.9105 218.849 35 229M170 221L171 222L170 221M221 221L222 222L221 221M234 221L235 222L234 221M382 221L383 222L382 221M395 221L396 222L395 221M499 243C519.021 250.723 542.052 254.216 562 244.241C568.518 240.982 576.91 236.383 579 229C559.863 219.21 533.048 216.243 514 228.066C508.127 231.711 501.309 236.265 499 243M394 222L395 223L394 222z"/>
<path style="fill:#666652; stroke:none;" d="M431 222L432 223L431 222z"/>
<path style="fill:#8a7b43; stroke:none;" d="M379 223L380 224L379 223M325 224L326 225L325 224z"/>
<path style="fill:#666652; stroke:none;" d="M377 224L378 225L377 224z"/>
<path style="fill:#8a7b43; stroke:none;" d="M442 224L443 225L442 224M175 225L176 226L175 225M241 225L242 226L241 225z"/>
<path style="fill:#666652; stroke:none;" d="M375 225L376 226L375 225z"/>
<path style="fill:#8a7b43; stroke:none;" d="M427 225L428 226L427 225z"/>
<path style="fill:#666652; stroke:none;" d="M441 225L442 226L441 225M176 226L177 227L176 226z"/>
<path style="fill:#8a7b43; stroke:none;" d="M189.667 226.333L190.333 226.667L189.667 226.333M292 226L293 227L292 226z"/>
<path style="fill:#666652; stroke:none;" d="M324 226L325 227L324 226z"/>
<path style="fill:#8a7b43; stroke:none;" d="M373.667 226.333L374.333 226.667L373.667 226.333z"/>
<path style="fill:#666652; stroke:none;" d="M389 226L390 227L389 226M230 228L231 229L230 228z"/>
<path style="fill:#8a7b43; stroke:none;" d="M423 228L424 229L423 228M180 229L181 230L180 229z"/>
<path style="fill:#666652; stroke:none;" d="M436 229L437 230L436 229M579.333 229.667L579.667 230.333L579.333 229.667z"/>
<path style="fill:#8a7b43; stroke:none;" d="M251.667 230.333L252.333 230.667L251.667 230.333M383 230L384 231L383 230z"/>
<path style="fill:#666652; stroke:none;" d="M435 230L436 231L435 230z"/>
<path style="fill:#8a7b43; stroke:none;" d="M235 231L236 232L235 231M321 231L322 232L321 231M419 231L420 232L419 231M151 232L151 233L154 233L151 232z"/>
<path style="fill:#fcf1d8; stroke:none;" d="M139 237C148.359 247.999 162.64 245.198 175 242C167.926 227.618 150.432 232.91 139 237z"/>
<path style="fill:#8a7b43; stroke:none;" d="M160 232L160 233L163 233L160 232z"/>
<path style="fill:#666652; stroke:none;" d="M257.667 232.333L258.333 232.667L257.667 232.333M380 232L381 233L380 232z"/>
<path style="fill:#8a7b43; stroke:none;" d="M432 232L433 233L432 232z"/>
<path style="fill:#fcf1d8; stroke:none;" d="M441 240C450.846 247.945 469.878 246.794 478 237C462.808 232.853 454.757 230.232 441 240z"/>
<path style="fill:#8a7b43; stroke:none;" d="M462.667 232.333L463.333 232.667L462.667 232.333z"/>
<path style="fill:#666652; stroke:none;" d="M200 233L201 234L200 233z"/>
<path style="fill:#8a7b43; stroke:none;" d="M239 233L240 234L239 233z"/>
<path style="fill:#666652; stroke:none;" d="M260.667 233.333L261.333 233.667L260.667 233.333M378 233L379 234L378 233M416 233L417 234L416 233M431 233L432 234L431 233M467.667 233.333L468.333 233.667L467.667 233.333M166.667 234.333L167.333 234.667L166.667 234.333z"/>
<path style="fill:#8a7b43; stroke:none;" d="M241 234L242 235L241 234M296 234L297 235L296 234z"/>
<path style="fill:#666652; stroke:none;" d="M376 234L377 235L376 234M449 234L450 235L449 234z"/>
<path style="fill:#8a7b43; stroke:none;" d="M168 235L169 236L168 235z"/>
<path style="fill:#666652; stroke:none;" d="M350 235L351 236L350 235z"/>
<path style="fill:#8a7b43; stroke:none;" d="M428 235L429 236L428 235M139 236L139 237L142 237L139 236z"/>
<path style="fill:#666652; stroke:none;" d="M189 236L190 237L189 236M245 236L246 237L245 236z"/>
<path style="fill:#8a7b43; stroke:none;" d="M297 236L298 237L297 236M427 236L428 237L427 236z"/>
<path style="fill:#666652; stroke:none;" d="M475 236L475 237L478 237L475 236z"/>
<path style="fill:#8a7b43; stroke:none;" d="M138 237L139 238L138 237z"/>
<path style="fill:#666652; stroke:none;" d="M206 237L207 238L206 237z"/>
<path style="fill:#8a7b43; stroke:none;" d="M270 237L271 238L270 237z"/>
<path style="fill:#666652; stroke:none;" d="M410 237L411 238L410 237M426 237L427 238L426 237z"/>
<path style="fill:#8a7b43; stroke:none;" d="M192 238L193 239L192 238M207 238L208 239L207 238z"/>
<path style="fill:#666652; stroke:none;" d="M367 238L368 239L367 238z"/>
<path style="fill:#8a7b43; stroke:none;" d="M409 238L410 239L409 238M443 238L444 239L443 238M193 239L194 240L193 239M253.667 239.333L254.333 239.667L253.667 239.333z"/>
<path style="fill:#666652; stroke:none;" d="M274 239L275 240L274 239z"/>
<path style="fill:#8a7b43; stroke:none;" d="M342 239L343 240L342 239M364 239L365 240L364 239z"/>
<path style="fill:#666652; stroke:none;" d="M423 239L424 240L423 239M142 240L143 241L142 240M175.333 240.667L175.667 241.333L175.333 240.667z"/>
<path style="fill:#8a7b43; stroke:none;" d="M210 240L211 241L210 240z"/>
<path style="fill:#666652; stroke:none;" d="M256 240L257 241L256 240z"/>
<path style="fill:#8a7b43; stroke:none;" d="M474 240L475 241L474 240z"/>
<path style="fill:#666652; stroke:none;" d="M144 241L145 242L144 241M259 241L260 242L259 241M317.333 241.667L317.667 242.333L317.333 241.667z"/>
<path style="fill:#8a7b43; stroke:none;" d="M441.667 241.333L442.333 241.667L441.667 241.333z"/>
<path style="fill:#666652; stroke:none;" d="M197 242L198 243L197 242z"/>
<path style="fill:#8a7b43; stroke:none;" d="M338 242L339 243L338 242z"/>
<path style="fill:#666652; stroke:none;" d="M355 242L356 243L355 242z"/>
<path style="fill:#8a7b43; stroke:none;" d="M419 242L420 243L419 242M168.667 243.333L169.333 243.667L168.667 243.333z"/>
<path style="fill:#666652; stroke:none;" d="M279 243L280 244L279 243z"/>
<path style="fill:#8a7b43; stroke:none;" d="M401 243L402 244L401 243z"/>
<path style="fill:#666652; stroke:none;" d="M467.667 243.333L468.333 243.667L467.667 243.333z"/>
<path style="fill:#8a7b43; stroke:none;" d="M163.667 244.333L164.333 244.667L163.667 244.333z"/>
<path style="fill:#666652; stroke:none;" d="M165.667 244.333L166.333 244.667L165.667 244.333z"/>
<path style="fill:#8a7b43; stroke:none;" d="M349 244L350 245L349 244M451.667 244.333L452.333 244.667L451.667 244.333z"/>
<path style="fill:#666652; stroke:none;" d="M218 245L219 246L218 245z"/>
<path style="fill:#8a7b43; stroke:none;" d="M398 245L399 246L398 245M415 245L416 246L415 245M275 247L276 248L275 247z"/>
<path style="fill:#666652; stroke:none;" d="M341.667 247.333L342.333 247.667L341.667 247.333z"/>
<path style="fill:#8a7b43; stroke:none;" d="M223 248L224 249L223 248z"/>
<path style="fill:#666652; stroke:none;" d="M301.333 248.667L301.667 249.333L301.333 248.667z"/>
<path style="fill:#8a7b43; stroke:none;" d="M333 248L334 249L333 248M339 248L340 249L339 248M393 248L394 249L393 248z"/>
<path style="fill:#666652; stroke:none;" d="M93 249L93 250L96 250L93 249M279 249L280 250L279 249z"/>
<path style="fill:#8a7b43; stroke:none;" d="M337 249L338 250L337 249M391 249L392 250L391 249z"/>
<path style="fill:#666652; stroke:none;" d="M72 250L72 251L88 251L72 250M281 250L282 251L281 250M389 250L390 251L389 250z"/>
<path style="fill:#8a7b43; stroke:none;" d="M408 250L409 251L408 250z"/>
<path style="fill:#666652; stroke:none;" d="M525 250L525 251L541 251L525 250M285 251L284 253L286 253L285 251M387 251L388 252L387 251z"/>
<path style="fill:#8a7b43; stroke:none;" d="M231 252L232 253L231 252z"/>
<path style="fill:#666652; stroke:none;" d="M302.333 252.667L302.667 253.333L302.333 252.667M331.667 252.333L332.333 252.667L331.667 252.333M385 252L386 253L385 252z"/>
<path style="fill:#8a7b43; stroke:none;" d="M383 253L384 254L383 253M404 253L403 255L404 253z"/>
<path style="fill:#666652; stroke:none;" d="M404 254L404 255L413 255L404 254M379.667 254.333L380.333 254.667L379.667 254.333M195.667 255.333L196.333 255.667L195.667 255.333M313.333 255.667L313.667 256.333L313.333 255.667z"/>
<path style="fill:#8a7b43; stroke:none;" d="M378.667 255.333L379.333 255.667L378.667 255.333M416.667 255.333L417.333 255.667L416.667 255.333z"/>
<path style="fill:#666652; stroke:none;" d="M418 255L418 256L421 256L418 255z"/>
<path style="fill:#8a7b43; stroke:none;" d="M189 256L189 257L192 257L189 256z"/>
<path style="fill:#666652; stroke:none;" d="M240.667 256.333L241.333 256.667L240.667 256.333M303.333 256.667L303.667 257.333L303.333 256.667z"/>
<path style="fill:#8a7b43; stroke:none;" d="M424.667 256.333L425.333 256.667L424.667 256.333M184.667 257.333L185.333 257.667L184.667 257.333M429 257L429 258L432 258L429 257M180.667 258.333L181.333 258.667L180.667 258.333M433.667 258.333L434.333 258.667L433.667 258.333M177.667 259.333L178.333 259.667L177.667 259.333M48 276L48 277C66.5997 288.829 109.522 294.423 122 270C95.4493 257.387 70.8485 255.639 48 276M304.333 260.667L304.667 261.333L304.333 260.667z"/>
<path style="fill:#666652; stroke:none;" d="M312.333 260.667L312.667 261.333L312.333 260.667M440.667 260.333L441.333 260.667L440.667 260.333z"/>
<path style="fill:#8a7b43; stroke:none;" d="M492 269C510.761 293.515 541.595 288.013 566 278C564.293 272.471 557.864 268.513 553 265.742C532.898 254.29 512.041 262.479 492 269z"/>
<path style="fill:#666652; stroke:none;" d="M536 260L536 261L540 261L536 260M364 261L365 262L364 261z"/>
<path style="fill:#8a7b43; stroke:none;" d="M254 262L255 263L254 262M362 262L363 263L362 262z"/>
<path style="fill:#666652; stroke:none;" d="M445.667 262.333L446.333 262.667L445.667 262.333z"/>
<path style="fill:#8a7b43; stroke:none;" d="M358 264L359 265L358 264z"/>
<path style="fill:#666652; stroke:none;" d="M450.667 264.333L451.333 264.667L450.667 264.333z"/>
<path style="fill:#8a7b43; stroke:none;" d="M163 265L164 266L163 265M195.667 265.333L196.333 265.667L195.667 265.333z"/>
<path style="fill:#666652; stroke:none;" d="M197 265L197 266L200 266L197 265M212 265L212 266L218 266L212 265z"/>
<path style="fill:#8a7b43; stroke:none;" d="M259.667 265.333L260.333 265.667L259.667 265.333z"/>
<path style="fill:#666652; stroke:none;" d="M311.333 265.667L311.667 266.333L311.333 265.667M356 265L357 266L356 265z"/>
<path style="fill:#8a7b43; stroke:none;" d="M398.667 265.333L399.333 265.667L398.667 265.333M416 265L416 266L421 266L416 265M451.667 265.333L452.333 265.667L451.667 265.333z"/>
<path style="fill:#666652; stroke:none;" d="M161 266L162 267L161 266z"/>
<path style="fill:#8a7b43; stroke:none;" d="M190.667 266.333L191.333 266.667L190.667 266.333M222.667 266.333L223.333 266.667L222.667 266.333z"/>
<path style="fill:#666652; stroke:none;" d="M305.333 266.667L305.667 267.333L305.333 266.667z"/>
<path style="fill:#8a7b43; stroke:none;" d="M391 266L391 267L394 267L391 266M424.667 266.333L425.333 266.667L424.667 266.333z"/>
<path style="fill:#666652; stroke:none;" d="M227.667 267.333L228.333 267.667L227.667 267.333z"/>
<path style="fill:#8a7b43; stroke:none;" d="M430.667 267.333L431.333 267.667L430.667 267.333M265 268L266 269L265 268M351 268L352 269L351 268z"/>
<path style="fill:#666652; stroke:none;" d="M384.667 268.333L385.333 268.667L384.667 268.333z"/>
<path style="fill:#8a7b43; stroke:none;" d="M434.667 268.333L435.333 268.667L434.667 268.333M457 268L458 269L457 268z"/>
<path style="fill:#666652; stroke:none;" d="M120 269L120 270L123 271L120 269M267 269L268 270L267 269z"/>
<path style="fill:#8a7b43; stroke:none;" d="M437.667 269.333L438.333 269.667L437.667 269.333M155 270L156 271L155 270M268 270L269 271L268 270M460 270L461 271L460 270M240.667 271.333L241.333 271.667L240.667 271.333z"/>
<path style="fill:#666652; stroke:none;" d="M306.333 271.667L306.667 272.333L306.333 271.667z"/>
<path style="fill:#8a7b43; stroke:none;" d="M310.333 271.667L310.667 272.333L310.333 271.667z"/>
<path style="fill:#666652; stroke:none;" d="M346 271L347 272L346 271z"/>
<path style="fill:#8a7b43; stroke:none;" d="M375 271L376 272L375 271M152 272L153 273L152 272M271 272L272 273L271 272M373 272L374 273L373 272M463 272L464 273L463 272z"/>
<path style="fill:#666652; stroke:none;" d="M561 272L561 273L564 274L561 272M168.667 273.333L169.333 273.667L168.667 273.333M371 273L372 274L371 273M166.667 274.333L167.333 274.667L166.667 274.333z"/>
<path style="fill:#8a7b43; stroke:none;" d="M247 274L248 275L247 274M342 274L343 275L342 274z"/>
<path style="fill:#666652; stroke:none;" d="M369 274L370 275L369 274M148 275L149 276L148 275M275 275L276 276L275 275M367 275L368 276L367 275z"/>
<path style="fill:#8a7b43; stroke:none;" d="M147 276L148 277L147 276z"/>
<path style="fill:#666652; stroke:none;" d="M163 276L164 277L163 276M250 276L251 277L250 276z"/>
<path style="fill:#8a7b43; stroke:none;" d="M276 276L277 277L276 276z"/>
<path style="fill:#666652; stroke:none;" d="M307.333 276.667L307.667 277.333L307.333 276.667z"/>
<path style="fill:#8a7b43; stroke:none;" d="M309.333 276.667L309.667 277.333L309.333 276.667M365 276L366 277L365 276M161 277L162 278L161 277M363 277L364 278L363 277M454 277L455 278L454 277M469 277L470 278L469 277M254 278L255 279L254 278M337 278L338 279L337 278M336 279L337 280L336 279z"/>
<path style="fill:#666652; stroke:none;" d="M360 279L361 280L360 279z"/>
<path style="fill:#8a7b43; stroke:none;" d="M457 279L458 280L457 279z"/>
<path style="fill:#666652; stroke:none;" d="M281 280L282 281L281 280z"/>
<path style="fill:#8a7b43; stroke:none;" d="M282 281L283 282L282 281z"/>
<path style="fill:#666652; stroke:none;" d="M474 281L475 282L474 281z"/>
<path style="fill:#8a7b43; stroke:none;" d="M140 282L141 283L140 282M154 282L155 283L154 282M461 282L462 283L461 282M475 282L476 283L475 282M150 285L151 286L150 285z"/>
<path style="fill:#666652; stroke:none;" d="M352 285L353 286L352 285M544.667 285.333L545.333 285.667L544.667 285.333M466 286L467 287L466 286z"/>
<path style="fill:#8a7b43; stroke:none;" d="M480 286L481 287L480 286M266 287L267 288L266 287z"/>
<path style="fill:#666652; stroke:none;" d="M483 288L484 289L483 288z"/>
<path style="fill:#8a7b43; stroke:none;" d="M131 289L132 290L131 289z"/>
<path style="fill:#666652; stroke:none;" d="M129 290L130 291L129 290z"/>
<path style="fill:#8a7b43; stroke:none;" d="M144 290L145 291L144 290M291 290L292 291L291 290M471 290L472 291L471 290z"/>
<path style="fill:#666652; stroke:none;" d="M486 290L487 291L486 290z"/>
<path style="fill:#8a7b43; stroke:none;" d="M292 291L293 292L292 291M126 292L127 293L126 292M293 292L294 293L293 292M123.667 293.333L124.333 293.667L123.667 293.333M322 293L323 294L322 293M120.667 294.333L121.333 294.667L120.667 294.333M139 294L140 295L139 294M321 294L322 295L321 294M342 294L343 295L342 294M476 294L477 295L476 294M341 295L342 296L341 295z"/>
<path style="fill:#666652; stroke:none;" d="M496.667 295.333L497.333 295.667L496.667 295.333z"/>
<path style="fill:#8a7b43; stroke:none;" d="M136 296L137 297L136 296M479 296L480 297L479 296z"/>
<path style="fill:#666652; stroke:none;" d="M499.667 296.333L500.333 296.667L499.667 296.333z"/>
<path style="fill:#8a7b43; stroke:none;" d="M297 297L298 298L297 297M502.667 297.333L503.333 297.667L502.667 297.333z"/>
<path style="fill:#666652; stroke:none;" d="M36 313L36 315C56.4755 323.147 70.7841 319.975 88 307L88 305C66.4325 295.273 53.4916 297.6 36 313z"/>
<path style="fill:#8a7b43; stroke:none;" d="M108.667 298.333L109.333 298.667L108.667 298.333M318 298L319 299L318 298z"/>
<path style="fill:#666652; stroke:none;" d="M506.667 298.333L507.333 298.667L506.667 298.333M528 304C534.393 326.446 562.58 318.078 578 316C571.764 293.836 543.789 297.168 528 304M104.333 299.667L104.667 300.333L104.333 299.667z"/>
<path style="fill:#fcf1d8; stroke:none;" d="M126 330C146.113 327.445 175.147 317.759 186 299C169.287 300.33 157.528 311.256 143 318.216C135.959 321.589 128.509 321.629 126 330z"/>
<path style="fill:#666652; stroke:none;" d="M229 299L229 300L238 300L229 299z"/>
<path style="fill:#8a7b43; stroke:none;" d="M278 299L279 300L278 299z"/>
<path style="fill:#666652; stroke:none;" d="M378 299L378 300L386 300L378 299z"/>
<path style="fill:#fcf1d8; stroke:none;" d="M431 299C445.375 319.061 468.247 324.102 490 331C487.263 321.555 479.745 321.953 472 317.88C458.045 310.541 447.193 301.091 431 299z"/>
<path style="fill:#666652; stroke:none;" d="M434.667 299.333L435.333 299.667L434.667 299.333z"/>
<path style="fill:#8a7b43; stroke:none;" d="M224.667 300.333L225.333 300.667L224.667 300.333z"/>
<path style="fill:#fcf1d8; stroke:none;" d="M197 322C214.713 312.731 243.125 315.853 263 315C248.48 290.089 208.196 297.987 197 322z"/>
<path style="fill:#8a7b43; stroke:none;" d="M241.667 300.333L242.333 300.667L241.667 300.333M279 300L280 301L279 300z"/>
<path style="fill:#666652; stroke:none;" d="M337 300L338 301L337 300z"/>
<path style="fill:#8a7b43; stroke:none;" d="M372.667 300.333L373.333 300.667L372.667 300.333z"/>
<path style="fill:#fcf1d8; stroke:none;" d="M353 315C374.478 318.99 397.452 313.085 418 321C407.267 296.985 366.821 291.156 353 315z"/>
<path style="fill:#666652; stroke:none;" d="M390.667 300.333L391.333 300.667L390.667 300.333M431 300L432 301L431 300z"/>
<path style="fill:#8a7b43; stroke:none;" d="M107.667 301.333L108.333 301.667L107.667 301.333z"/>
<path style="fill:#666652; stroke:none;" d="M300 301L301 302L300 301z"/>
<path style="fill:#8a7b43; stroke:none;" d="M336 301L337 302L336 301M369.667 301.333L370.333 301.667L369.667 301.333z"/>
<path style="fill:#666652; stroke:none;" d="M442.667 301.333L443.333 301.667L442.667 301.333M111 302L111 303L114 303L111 302z"/>
<path style="fill:#8a7b43; stroke:none;" d="M114 302L114 303L120 303L114 302z"/>
<path style="fill:#666652; stroke:none;" d="M120.667 302.333L121.333 302.667L120.667 302.333z"/>
<path style="fill:#8a7b43; stroke:none;" d="M315 302L316 303L315 302M335 302L336 303L335 302M494 302L494 303L504 303L494 302M216 303L217 304L216 303M399 303L400 304L399 303M214 304L215 305L214 304z"/>
<path style="fill:#666652; stroke:none;" d="M282 304L283 305L282 304z"/>
<path style="fill:#8a7b43; stroke:none;" d="M401 304L402 305L401 304M179 305L180 306L179 305z"/>
<path style="fill:#666652; stroke:none;" d="M254 305L255 306L254 305z"/>
<path style="fill:#8a7b43; stroke:none;" d="M283 305L284 306L283 305z"/>
<path style="fill:#666652; stroke:none;" d="M303 305L304 306L303 305M333 305L334 306L333 305M403 305L404 306L403 305z"/>
<path style="fill:#8a7b43; stroke:none;" d="M437 305L438 306L437 305M451 305L452 306L451 305M163 306L164 307L163 306M178 306L179 307L178 306M255 306L256 307L255 306z"/>
<path style="fill:#666652; stroke:none;" d="M312 306L313 307L312 306z"/>
<path style="fill:#8a7b43; stroke:none;" d="M332 306L333 307L332 306z"/>
<path style="fill:#666652; stroke:none;" d="M360 306L361 307L360 306z"/>
<path style="fill:#8a7b43; stroke:none;" d="M404 306L405 307L404 306M161 307L162 308L161 307M256 307L257 308L256 307z"/>
<path style="fill:#666652; stroke:none;" d="M406 307L407 308L406 307M285 308L286 309L285 308M305 308L306 309L305 308M207 309L208 310L207 309z"/>
<path style="fill:#8a7b43; stroke:none;" d="M286 309L287 310L286 309z"/>
<path style="fill:#666652; stroke:none;" d="M310 309L311 310L310 309z"/>
<path style="fill:#8a7b43; stroke:none;" d="M330 309L331 310L330 309z"/>
<path style="fill:#666652; stroke:none;" d="M408 309L409 310L408 309z"/>
<path style="fill:#8a7b43; stroke:none;" d="M173 310L174 311L173 310M409 310L410 311L409 310M459 310L460 311L459 310M155 311L156 312L155 311M307 311L307 313L309 313L307 311M309 311L310 312L309 311M410 311L411 312L410 311M204 312L205 313L204 312M261 312L262 313L261 312M288 312L289 313L288 312M354 312L355 313L354 312M411 312L412 313L411 312M462 312L463 313L462 312M152 313L153 314L152 313M169 313L170 314L169 313M203 313L204 314L203 313z"/>
<path style="fill:#666652; stroke:none;" d="M262 313L263 314L262 313z"/>
<path style="fill:#8a7b43; stroke:none;" d="M202 314L203 315L202 314M166 315L167 316L166 315z"/>
<path style="fill:#666652; stroke:none;" d="M201 315L202 316L201 315z"/>
<path style="fill:#8a7b43; stroke:none;" d="M257 315L257 316L260 316L257 315M290 315L291 316L290 315z"/>
<path style="fill:#666652; stroke:none;" d="M326 315L327 316L326 315M353 315L353 316L356 316L353 315z"/>
<path style="fill:#8a7b43; stroke:none;" d="M414 315L415 316L414 315M467 315L468 316L467 315M249.667 316.333L250.333 316.667L249.667 316.333z"/>
<path style="fill:#666652; stroke:none;" d="M251.667 316.333L252.333 316.667L251.667 316.333M362.667 316.333L363.333 316.667L362.667 316.333M415 316L416 317L415 316z"/>
<path style="fill:#8a7b43; stroke:none;" d="M163 317L164 318L163 317z"/>
<path style="fill:#666652; stroke:none;" d="M208.667 317.333L209.333 317.667L208.667 317.333M232 317L232 318L241 318L232 317M376 317L376 318L384 318L376 317M406.667 317.333L407.333 317.667L406.667 317.333z"/>
<path style="fill:#8a7b43; stroke:none;" d="M203.667 318.333L204.333 318.667L203.667 318.333M292 318L293 319L292 318z"/>
<path style="fill:#666652; stroke:none;" d="M472.667 318.333L473.333 318.667L472.667 318.333z"/>
<path style="fill:#8a7b43; stroke:none;" d="M201 319L202 320L201 319M456 319L457 320L456 319M158 320L159 321L158 320z"/>
<path style="fill:#666652; stroke:none;" d="M293 320L294 321L293 320M477.667 320.333L478.333 320.667L477.667 320.333M101 321L101 322L110 324C111.608 319.736 103.667 321 101 321z"/>
<path style="fill:#8a7b43; stroke:none;" d="M134.667 321.333L135.333 321.667L134.667 321.333z"/>
<path style="fill:#666652; stroke:none;" d="M480.667 321.333L481.333 321.667L480.667 321.333M505 324L506 324L520 322C516.562 320.019 505.997 319.346 505 324z"/>
<path style="fill:#8a7b43; stroke:none;" d="M58 350C79.8138 352.757 107.578 349.564 110 322C89.5742 322 63.314 325.449 58 350M506 322C508.499 350.44 536.268 351.715 558 350C550.933 326.154 527.131 322 506 322M295 323L296 324L295 323M321 323L322 324L321 323M466 324L467 325L466 324M296 325L297 326L296 325M320 325L321 326L320 325M139.667 327.333L140.333 327.667L139.667 327.333M135 328L135 329L138 329L135 328M478.667 328.333L479.333 328.667L478.667 328.333M129.667 329.333L130.333 329.667L129.667 329.333z"/>
<path style="fill:#666652; stroke:none;" d="M219 329L219 330L223 330L219 329z"/>
<path style="fill:#8a7b43; stroke:none;" d="M223 329L223 330L233 331L223 329z"/>
<path style="fill:#fcf1d8; stroke:none;" d="M383 329L383 330L434 364C431.788 336.958 405.602 329.971 383 329z"/>
<path style="fill:#8a7b43; stroke:none;" d="M388 329L388 330L393 330L388 329z"/>
<path style="fill:#666652; stroke:none;" d="M393 329L393 330L396 330L393 329z"/>
<path style="fill:#8a7b43; stroke:none;" d="M483 329L483 330L486 330L483 329z"/>
<path style="fill:#666652; stroke:none;" d="M213 330L213 331L216 331L213 330z"/>
<path style="fill:#fcf1d8; stroke:none;" d="M182 364L208 350.215L232 331C209.578 321.591 184.863 342.757 182 364z"/>
<path style="fill:#8a7b43; stroke:none;" d="M299 330L300 331L299 330z"/>
<path style="fill:#666652; stroke:none;" d="M317 330L318 331L317 330z"/>
<path style="fill:#8a7b43; stroke:none;" d="M399 330L399 331L402 331L399 330M210.667 331.333L211.333 331.667L210.667 331.333z"/>
<path style="fill:#666652; stroke:none;" d="M405.667 331.333L406.333 331.667L405.667 331.333M408.667 332.333L409.333 332.667L408.667 332.333z"/>
<path style="fill:#8a7b43; stroke:none;" d="M227 333L228 334L227 333M301 333L302 334L301 333M388 333L389 334L388 333M226 334L227 335L226 334M302 335L303 336L302 335z"/>
<path style="fill:#666652; stroke:none;" d="M314 335L315 336L314 335M198 336L199 337L198 336z"/>
<path style="fill:#8a7b43; stroke:none;" d="M222 337L223 338L222 337z"/>
<path style="fill:#666652; stroke:none;" d="M273.667 337.333L274.333 337.667L273.667 337.333z"/>
<path style="fill:#8a7b43; stroke:none;" d="M340 337L340 338L343 338L340 337z"/>
<path style="fill:#666652; stroke:none;" d="M418 337L419 338L418 337z"/>
<path style="fill:#8a7b43; stroke:none;" d="M221 338L222 339L221 338z"/>
<path style="fill:#fcf1d8; stroke:none;" d="M307 361C302.268 341.095 275.759 335.834 260 342.579C255.224 344.623 248.461 346.624 246.723 352.093C244.256 359.857 238.355 382.88 242.757 389.961C247.668 397.859 261.296 400.974 262.852 411C264.525 421.777 258.093 434.575 261.703 444.985C263.742 450.866 270.831 456.024 277 453.621C290.894 448.21 314.117 434.516 301.987 416.39C298.317 410.906 289.69 411.55 285.244 406.786C281.867 403.168 283.167 398.575 288.015 397.318C298.93 394.488 314.723 396.529 325.999 397.019C329.846 397.187 334.538 399.147 333.149 403.958C330.42 413.407 314.319 409.51 313.109 420.015C312.603 424.406 311.745 432.55 313.603 436.624C317.405 444.958 341.966 457.345 349.981 451.486C362.134 442.602 350.847 421.988 353.357 410.004C355.57 399.436 373.254 398.04 374.848 386.999C376.025 378.844 373.44 357.176 368.86 350.34C364.581 343.952 346.486 337.235 339 338.343C324.371 340.509 316.634 351.737 307 361z"/>
<path style="fill:#8a7b43; stroke:none;" d="M312 338L313 339L312 338z"/>
<path style="fill:#666652; stroke:none;" d="M337 338L338 339L337 338M344.667 338.333L345.333 338.667L344.667 338.333z"/>
<path style="fill:#8a7b43; stroke:none;" d="M194 339L195 340L194 339z"/>
<path style="fill:#666652; stroke:none;" d="M347.667 339.333L348.333 339.667L347.667 339.333z"/>
<path style="fill:#8a7b43; stroke:none;" d="M395 339L396 340L395 339M305 340L306 341L305 340M310 341L311 342L310 341z"/>
<path style="fill:#666652; stroke:none;" d="M352.667 341.333L353.333 341.667L352.667 341.333z"/>
<path style="fill:#8a7b43; stroke:none;" d="M287 342L288 343L287 342M328 342L329 343L328 342M307 343L308 344L307 343M309 343L310 344L309 343M326 343L327 344L326 343M189 344L190 345L189 344M214 344L215 345L214 344M324 344L325 345L324 344M359 344L360 345L359 344z"/>
<path style="fill:#666652; stroke:none;" d="M482 344L482 345L487 345L482 344z"/>
<path style="fill:#8a7b43; stroke:none;" d="M109 354L109 356L112 357L112 358C104.113 361.846 105.369 370.932 105 379C108.805 379.887 108.879 383.506 109 387C113.461 387.726 114.775 390.289 117 394L118 394L119 390L128 401L129 386L113 369C120.482 369.243 124.757 373.518 125 381L134 381C134.25 373.296 139.166 368.324 147 370L147 372C133.933 377.639 131.426 387.407 135 400L137 400L141 391L146 393L147 385L152 386C152.644 378.11 154.786 372.544 151 365L157 369C156.037 364.026 153.847 360.727 149 359C150.61 346.805 132.179 342.938 123 345.916C117.874 347.579 113.517 351.167 109 354M213 345L214 346L213 345z"/>
<path style="fill:#666652; stroke:none;" d="M322 345L323 346L322 345z"/>
<path style="fill:#8a7b43; stroke:none;" d="M402 345L403 346L402 345M426 345L427 346L426 345M464 354L464 356L467 357L467 359C462.155 360.737 460.383 364.212 459 369L463 366L464 388L465 388L465 384L472 393L473 389L476 389L483 396C482.997 391.654 483.7 387.56 479 386L469 369C476.604 369.763 480.597 373.257 481 381L492 381L485 386L488 397L494 390L496 390L497 393L499 393L502 385L506 387C506.098 382.949 506.345 380.135 510 378L504 361C512.038 359.269 496.341 347.443 493 346.028C482.572 341.61 472.146 348.181 464 354z"/>
<path style="fill:#666652; stroke:none;" d="M212 346L213 347L212 346z"/>
<path style="fill:#8a7b43; stroke:none;" d="M363 346L364 347L363 346z"/>
<path style="fill:#666652; stroke:none;" d="M403 346L404 347L403 346M211 347L212 348L211 347M319 347L320 348L319 347z"/>
<path style="fill:#8a7b43; stroke:none;" d="M248 348L249 349L248 348M367 348L368 349L367 348M428 348L429 349L428 348M186 349L187 350L186 349M407 349L408 350L407 349M207 350L208 351L207 350z"/>
<path style="fill:#666652; stroke:none;" d="M369 350L370 351L369 350M69 351L69 352L77 352L69 351z"/>
<path style="fill:#8a7b43; stroke:none;" d="M246.333 351.667L246.667 352.333L246.333 351.667M410 351L411 352L410 351M204 352L205 353L204 352M202 353L203 354L202 353z"/>
<path style="fill:#666652; stroke:none;" d="M370.333 353.667L370.667 354.333L370.333 353.667z"/>
<path style="fill:#8a7b43; stroke:none;" d="M312 354L313 355L312 354z"/>
<path style="fill:#666652; stroke:none;" d="M183 356L184 357L183 356M196.667 356.333L197.333 356.667L196.667 356.333M245.333 356.667L245.667 357.333L245.333 356.667M182 358L182 361L183 361L182 358z"/>
<path style="fill:#8a7b43; stroke:none;" d="M245.333 358.667L245.667 359.333L245.333 358.667M424 358L425 359L424 358z"/>
<path style="fill:#666652; stroke:none;" d="M433.333 358.667L433.667 359.333L433.333 358.667M189.667 359.333L190.333 359.667L189.667 359.333z"/>
<path style="fill:#8a7b43; stroke:none;" d="M220 359L220 360L224 360L220 359M307 359L307 361L309 361L307 359M393.667 359.333L394.333 359.667L393.667 359.333z"/>
<path style="fill:#666652; stroke:none;" d="M395.667 359.333L396.333 359.667L395.667 359.333z"/>
<path style="fill:#8a7b43; stroke:none;" d="M215 360L215 361L218 361L215 360z"/>
<path style="fill:#fcf1d8; stroke:none;" d="M183 391C198.138 388.301 213.532 372.022 222 360C204.262 361.412 189.076 374.404 183 391M394 360C404.621 373.172 418.257 385.446 434 392C427.817 375.112 412.4 360.841 394 360z"/>
<path style="fill:#8a7b43; stroke:none;" d="M371.333 361.667L371.667 362.333L371.333 361.667M402.667 361.333L403.333 361.667L402.667 361.333z"/>
<path style="fill:#666652; stroke:none;" d="M244 362L244 365L245 365L244 362M406.667 362.333L407.333 362.667L406.667 362.333M181.333 363.667L181.667 364.333L181.333 363.667z"/>
<path style="fill:#8a7b43; stroke:none;" d="M397 363L398 364L397 363z"/>
<path style="fill:#666652; stroke:none;" d="M77 364L77 365L86 365L77 364M104 364L103 370L104 370L104 364z"/>
<path style="fill:#8a7b43; stroke:none;" d="M205.667 364.333L206.333 364.667L205.667 364.333M265 364L265 365L277 365L265 364M340 364L340 365L346 365L340 364z"/>
<path style="fill:#666652; stroke:none;" d="M527 364L527 365L536 365L527 364z"/>
<path style="fill:#8a7b43; stroke:none;" d="M66 365C66.9566 367.983 73.7258 371.671 72.6937 374.593C72.0144 376.516 63.5416 374.214 61.0934 375.576C54.1353 379.449 54.0046 388.042 54 395L55 395L59 392L60 400C66.4857 397.849 71.865 393.039 75 387L76 387L75 402L84 396L83 405C90.8937 403.106 94.8165 396.806 95 389L98 390C97.9782 382.394 96.1914 368.974 87.9846 365.742C81.8295 363.319 72.5508 365 66 365z"/>
<path style="fill:#666652; stroke:none;" d="M151 365L152 368L153 368L153 365L151 365M257 365L257 366L261 366L257 365z"/>
<path style="fill:#030c0e; stroke:none;" d="M257 366C263.777 381.408 276.081 375.931 288 383C285.56 363.792 273.525 363.912 257 366M328 384C339.812 376.063 352.538 380.979 360 366C341.993 362.657 331.589 364.963 328 384z"/>
<path style="fill:#8a7b43; stroke:none;" d="M357 365L357 366L360 366L357 365z"/>
<path style="fill:#666652; stroke:none;" d="M399 365L400 366L399 365z"/>
<path style="fill:#8a7b43; stroke:none;" d="M517 390L518 390L520 388C520.173 395.359 523.388 402.152 531 404L530 396L540 404L541 404L539 386C543.858 391.561 548.223 397.961 556 399L556 392L561 393C560.899 380.835 554.77 370.682 542 378L549 365C542.539 365 533.103 363.25 527.04 365.603C519.074 368.696 517.062 382.651 517 390M202 366L203 367L202 366M281 366L282 367L281 366M334 366L335 367L334 366M372.333 366.667L372.667 367.333L372.333 366.667M257 367L258 368L257 367z"/>
<path style="fill:#666652; stroke:none;" d="M282 367L283 368L282 367z"/>
<path style="fill:#8a7b43; stroke:none;" d="M359 367L360 368L359 367M415 367L416 368L415 367M283 368L284 369L283 368M416 368L417 369L416 368z"/>
<path style="fill:#666652; stroke:none;" d="M243 369L243 372L244 372L243 369M332 369L333 370L332 369z"/>
<path style="fill:#030c0e; stroke:none;" d="M490 379C494.794 377.658 500.365 373.839 502 369C494.804 369.065 490.821 371.445 490 379z"/>
<path style="fill:#666652; stroke:none;" d="M356 371L357 372L356 371M373 371L373 374L374 374L373 371M405 371L406 372L405 371z"/>
<path style="fill:#8a7b43; stroke:none;" d="M195 372L196 373L195 372M406 372L407 373L406 372M194 373L195 374L194 373M261 373L262 374L261 373M330 373L331 374L330 373M407 373L408 374L407 373z"/>
<path style="fill:#666652; stroke:none;" d="M461 373L461 378L462 378L461 373M193 374L194 375L193 374z"/>
<path style="fill:#8a7b43; stroke:none;" d="M262 374L263 375L262 374M408 374L409 375L408 374M263 375L264 376L263 375M242.333 376.667L242.667 377.333L242.333 376.667M351 376L352 377L351 376M424 376L425 377L424 376z"/>
<path style="fill:#666652; stroke:none;" d="M205 377L206 378L205 377z"/>
<path style="fill:#8a7b43; stroke:none;" d="M266 377L267 378L266 377z"/>
<path style="fill:#666652; stroke:none;" d="M287 377L287 380L288 380L287 377M542.667 377.333L543.333 377.667L542.667 377.333M204 378L205 379L204 378z"/>
<path style="fill:#8a7b43; stroke:none;" d="M347.667 378.333L348.333 378.667L347.667 378.333z"/>
<path style="fill:#666652; stroke:none;" d="M374 378L374 381L375 381L374 378M189 379L190 380L189 379z"/>
<path style="fill:#8a7b43; stroke:none;" d="M271 379L271 380L277 380L271 379M333 379L333 380L338 380L333 379z"/>
<path style="fill:#666652; stroke:none;" d="M338 379L338 380L345 380L338 379z"/>
<path style="fill:#8a7b43; stroke:none;" d="M413 379L414 380L413 379M283.667 380.333L284.333 380.667L283.667 380.333M328.333 380.667L328.667 381.333L328.333 380.667M427 380L428 381L427 380M285 381L286 382L285 381M286 382L287 383L286 382M288 382L287 384L289 384L288 382z"/>
<path style="fill:#666652; stroke:none;" d="M198 383L199 384L198 383z"/>
<path style="fill:#8a7b43; stroke:none;" d="M241.333 383.667L241.667 384.333L241.333 383.667M418 383L419 384L418 383M195 385L196 386L195 385M421 385L422 386L421 385M184 387L185 388L184 387z"/>
<path style="fill:#666652; stroke:none;" d="M241 388L242 389L241 388M426 388L427 389L426 388M432 388L433 389L432 388M561 388L561 396L562 396L561 388M53 389L53 396L54 396L53 389M428 389L429 390L428 389M473 389L473 390L476 391L473 389M182 390L183 391L182 390z"/>
<path style="fill:#8a7b43; stroke:none;" d="M182.667 391.333L183.333 391.667L182.667 391.333z"/>
<path style="fill:#666652; stroke:none;" d="M472 391L471 394L472 391M181.667 392.333L182.333 392.667L181.667 392.333z"/>
<path style="fill:#8a7b43; stroke:none;" d="M218 392L218 393L223 393L218 392M393 392L395 394L395 392L393 392z"/>
<path style="fill:#666652; stroke:none;" d="M395.667 392.333L396.333 392.667L395.667 392.333z"/>
<path style="fill:#8a7b43; stroke:none;" d="M434 392L435 393L434 392z"/>
<path style="fill:#666652; stroke:none;" d="M213.667 393.333L214.333 393.667L213.667 393.333z"/>
<path style="fill:#fcf1d8; stroke:none;" d="M168 448L169 448C181.755 424.738 207.033 414.248 222 393C202.358 393.163 178.878 404.122 170.954 423C167.632 430.916 168 439.611 168 448M395 393C402.687 407.485 420.983 417.621 432.996 428.286C439.398 433.97 443.21 441.1 448 448C457.373 416.29 421.572 395.097 395 393z"/>
<path style="fill:#8a7b43; stroke:none;" d="M399 393L399 394L403 394L399 393M209.667 394.333L210.333 394.667L209.667 394.333M247 394L248 395L247 394M369 394L370 395L369 394z"/>
<path style="fill:#666652; stroke:none;" d="M406.667 394.333L407.333 394.667L406.667 394.333z"/>
<path style="fill:#8a7b43; stroke:none;" d="M205.667 395.333L206.333 395.667L205.667 395.333M409.667 395.333L410.333 395.667L409.667 395.333M202 396L202 397L205 397L202 396M397 396L398 397L397 396M412.667 396.333L413.333 396.667L412.667 396.333z"/>
<path style="fill:#666652; stroke:none;" d="M517 396L519 403L517 396M530 399L531 399L533 397C530.86 395.882 530.473 396.749 530 399M97 397L97 403L98 403L97 397z"/>
<path style="fill:#8a7b43; stroke:none;" d="M251 397L252 398L251 397z"/>
<path style="fill:#666652; stroke:none;" d="M285.667 397.333L286.333 397.667L285.667 397.333z"/>
<path style="fill:#8a7b43; stroke:none;" d="M331 397L332 398L331 397M365 397L366 398L365 397M398 397L399 398L398 397z"/>
<path style="fill:#666652; stroke:none;" d="M197 398L198 399L197 398z"/>
<path style="fill:#8a7b43; stroke:none;" d="M332 398L333 399L332 398M399 398L400 399L399 398M195 399L196 400L195 399M400 399L401 400L400 399M422 400L423 401L422 400z"/>
<path style="fill:#666652; stroke:none;" d="M531 400L530 405L531 400M191 401L192 402L191 401z"/>
<path style="fill:#8a7b43; stroke:none;" d="M282 401L282 404L283 404L282 401z"/>
<path style="fill:#666652; stroke:none;" d="M360 401L361 402L360 401z"/>
<path style="fill:#8a7b43; stroke:none;" d="M403 402L404 403L403 402M427 403L428 404L427 403M356 404L357 405L356 404M405 404L406 405L405 404M185 405L186 406L185 405M355 405L356 406L355 405M406 405L407 406L406 405z"/>
<path style="fill:#666652; stroke:none;" d="M430 405L431 406L430 405z"/>
<path style="fill:#8a7b43; stroke:none;" d="M332 406L333 407L332 406z"/>
<path style="fill:#666652; stroke:none;" d="M354 406L355 407L354 406z"/>
<path style="fill:#8a7b43; stroke:none;" d="M407 406L408 407L407 406M207 407L208 408L207 407M331 407L332 408L331 407z"/>
<path style="fill:#666652; stroke:none;" d="M353 407L353 411L354 411L353 407z"/>
<path style="fill:#8a7b43; stroke:none;" d="M408 407L409 408L408 407M206 408L207 409L206 408z"/>
<path style="fill:#666652; stroke:none;" d="M286 408L287 409L286 408M409 408L410 409L409 408M180 409L181 410L180 409z"/>
<path style="fill:#8a7b43; stroke:none;" d="M205 409L206 410L205 409z"/>
<path style="fill:#666652; stroke:none;" d="M435 409L436 410L435 409z"/>
<path style="fill:#8a7b43; stroke:none;" d="M204 410L205 411L204 410z"/>
<path style="fill:#666652; stroke:none;" d="M290.667 410.333L291.333 410.667L290.667 410.333M325 410L326 411L325 410M436 410L437 411L436 410z"/>
<path style="fill:#8a7b43; stroke:none;" d="M203 411L204 412L203 411M322.667 411.333L323.333 411.667L322.667 411.333M353 411L353 415L354 415L353 411M437 411L438 412L437 411z"/>
<path style="fill:#666652; stroke:none;" d="M202 412L203 413L202 412M438 412L439 413L438 412M201 413L202 414L201 413M262 413L262 421L263 421L262 413z"/>
<path style="fill:#8a7b43; stroke:none;" d="M298 413L299 414L298 413z"/>
<path style="fill:#666652; stroke:none;" d="M416 414L417 415L416 414M417 415L418 416L417 415M174 416L175 417L174 416z"/>
<path style="fill:#8a7b43; stroke:none;" d="M313 416L314 417L313 416M441 416L442 417L441 416M196 417L197 418L196 417M173 418L174 419L173 418M303 418L303 422L304 422L303 418M421 418L422 419L421 418z"/>
<path style="fill:#666652; stroke:none;" d="M388 421L391 420L388 421M422 419L423 420L422 419M443 419L444 420L443 419z"/>
<path style="fill:#8a7b43; stroke:none;" d="M172 513L173 513C173.003 485.924 193.68 477.7 209.827 459.985C219.78 449.066 225.127 434.501 227 420C215.84 420.238 205.325 426.924 197.004 433.921C173.409 453.758 162.305 483.195 172 513z"/>
<path style="fill:#666652; stroke:none;" d="M312 420L312 436L313 436L312 420M354 420L354 427L355 427L354 420z"/>
<path style="fill:#8a7b43; stroke:none;" d="M389 420C389.688 435.05 397.648 451.256 408.171 461.83C424.644 478.385 442.997 486.923 443 513C450.692 507.223 448.722 487.251 446.742 479C440.469 452.866 418.834 421.363 389 420M191 421L192 422L191 421M444 421L445 422L444 421M88 449L84 459L87 468L91 468L92 476L100 470L100 476C109.949 475.339 110.023 470.885 105 464L119 463C115.8 470.059 113.667 474.194 123 477L125 470L130 476L138 468L140 459L140 436L139 436C137.53 440.309 135.422 442.748 131 444L137 425C127.217 420.872 114.877 424.14 105 424.326C99.8908 424.423 95.207 421.744 90.0008 423.742C79.4323 427.799 77.9105 443.755 88 449M426 422L427 423L426 422z"/>
<path style="fill:#666652; stroke:none;" d="M480 439L482 439L483 438L482 428C485.485 428.355 492.371 432.919 493 428L509 428C504.884 426.273 500.341 427.489 496 426.621C483.998 424.221 472.444 421.928 480 439z"/>
<path style="fill:#8a7b43; stroke:none;" d="M493 428L473 451L479 448L475 461L482 459L480 472L481 472L488 469L486 477C496.517 475.492 499.547 476.474 494 466L510 467L505 472C506.756 477.419 512.967 478.188 514 472L522 476L520 467L528 471L524 458L532 460L527 448L533 450C531.393 446.425 527.384 443.589 526.367 439.91C524.937 434.734 530.69 429.253 525.427 424.603C520.463 420.218 512.997 426.072 508 427.387C503.256 428.636 497.868 428 493 428M186 425L187 426L186 425z"/>
<path style="fill:#666652; stroke:none;" d="M136 426L134 431C138.63 434.587 139.936 438.259 140 444C144.753 438.023 143.546 428.852 136 426z"/>
<path style="fill:#8a7b43; stroke:none;" d="M185 426L186 427L185 426M169 427L170 428L169 427z"/>
<path style="fill:#666652; stroke:none;" d="M184 427L185 428L184 427z"/>
<path style="fill:#8a7b43; stroke:none;" d="M261 427L261 435L262 435L261 427M432 427L433 428L432 427z"/>
<path style="fill:#666652; stroke:none;" d="M447.333 427.667L447.667 428.333L447.333 427.667z"/>
<path style="fill:#8a7b43; stroke:none;" d="M433 428L434 429L433 428z"/>
<path style="fill:#030c0e; stroke:none;" d="M482 428C482.032 436.955 484.74 436.525 492 433L492 431L482 428M519.001 428.801C513.428 430.612 515.216 438.089 520.722 436.288C524.971 434.898 524.285 427.083 519.001 428.801M133 430L132 444C140.199 441.642 139.963 433.821 133 430z"/>
<path style="fill:#8a7b43; stroke:none;" d="M435 430L436 431L435 430z"/>
<path style="fill:#030c0e; stroke:none;" d="M92 444L92 431C84.5641 433.157 84.597 441.802 92 444z"/>
<path style="fill:#8a7b43; stroke:none;" d="M168.333 431.667L168.667 432.333L168.333 431.667M436 431L437 432L436 431M437 432L438 433L437 432M438 433L439 434L438 433z"/>
<path style="fill:#666652; stroke:none;" d="M177 434L178 435L177 434M355 434L355 445L356 445L355 434M167 435L167 444L168 444L167 435z"/>
<path style="fill:#8a7b43; stroke:none;" d="M176 435L177 436L176 435z"/>
<path style="fill:#666652; stroke:none;" d="M441 437L442 438L441 437M131 438L131 444L132 444L131 438M314 438L315 439L314 438M190 439L189 442L190 439z"/>
<path style="fill:#8a7b43; stroke:none;" d="M316 439L317 440L316 439z"/>
<path style="fill:#666652; stroke:none;" d="M299 440L300 441L299 440z"/>
<path style="fill:#8a7b43; stroke:none;" d="M297 441L298 442L297 441M171 442L172 443L171 442M322 443L323 444L322 443M445 443L446 444L445 443M292 444L293 445L292 444M290 445L291 446L290 445M446 445L447 446L446 445M307.667 446.333L308.333 446.667L307.667 446.333z"/>
<path style="fill:#666652; stroke:none;" d="M327 446L328 447L327 446z"/>
<path style="fill:#8a7b43; stroke:none;" d="M240 447C229.367 461.959 212.686 471.959 202.043 487C182.039 515.273 186.077 559.079 218 577C216.172 556.032 209.917 538.2 216.144 517C220.068 503.642 229.304 493.39 235.215 481C240.186 470.582 241.905 458.45 242 447L240 447z"/>
<path style="fill:#666652; stroke:none;" d="M262 447L263 448L262 447z"/>
<path style="fill:#fcf1d8; stroke:none;" d="M305 447.653C297.255 449.871 272.638 462.731 284.318 473.44C292.597 481.03 318.121 479.045 327.995 475.775C333.851 473.837 336.426 465.828 332.972 460.39C329.303 454.612 311.659 445.746 305 447.653z"/>
<path style="fill:#666652; stroke:none;" d="M311 447L312 448L311 447z"/>
<path style="fill:#8a7b43; stroke:none;" d="M329 447L330 448L329 447z"/>
<path style="fill:#666652; stroke:none;" d="M374 447L374 453L375 453L376 447L374 447z"/>
<path style="fill:#8a7b43; stroke:none;" d="M168 448L169 449L168 448M263 448L264 449L263 448M285 448L286 449L285 448M331 448L332 449L331 448M375 448C375 458.525 375.938 469.281 380.465 479C386.076 491.049 395.728 501.185 399.78 514C406.657 535.747 401.776 554.25 400 576C429.012 562.436 432.934 522.17 420.181 496C411.642 478.479 390.893 459.195 375 448M352 449L353 450L352 449z"/>
<path style="fill:#030c0e; stroke:none;" d="M485 449C485.975 451.744 493.384 462.551 496.953 458.339C501.757 452.669 488.023 449.446 485 449z"/>
<path style="fill:#666652; stroke:none;" d="M512 450L512 451L516 450L512 450z"/>
<path style="fill:#030c0e; stroke:none;" d="M507 461C512.145 459.566 517.514 454.068 519 449C511.949 450.218 505.78 453.061 507 461M94 450C96.9098 455.342 100.782 459.307 107 460C105.933 453.103 100.55 450.341 94 450M130 450C127.021 450.072 113.935 452.762 118.086 458.356C121.57 463.051 128.84 452.485 130 450z"/>
<path style="fill:#8a7b43; stroke:none;" d="M265 450L266 451L265 450z"/>
<path style="fill:#666652; stroke:none;" d="M282 450L283 451L282 450M299 450L300 451L299 450z"/>
<path style="fill:#8a7b43; stroke:none;" d="M316 450L317 451L316 450z"/>
<path style="fill:#666652; stroke:none;" d="M334 450L335 451L334 450z"/>
<path style="fill:#8a7b43; stroke:none;" d="M351 450L352 451L351 450z"/>
<path style="fill:#666652; stroke:none;" d="M266 451L267 452L266 451z"/>
<path style="fill:#8a7b43; stroke:none;" d="M318 451L319 452L318 451z"/>
<path style="fill:#666652; stroke:none;" d="M336 451L337 452L336 451M350 451L351 452L350 451z"/>
<path style="fill:#8a7b43; stroke:none;" d="M340 453L341 454L340 453M346 453L347 454L346 453z"/>
<path style="fill:#666652; stroke:none;" d="M241 454L241 459L242 459L241 454z"/>
<path style="fill:#8a7b43; stroke:none;" d="M292 454L293 455L292 454M342 454L342 455L345 455L342 454z"/>
<path style="fill:#666652; stroke:none;" d="M290 455L291 456L290 455z"/>
<path style="fill:#8a7b43; stroke:none;" d="M327 456L328 457L327 456M329 457L330 458L329 457z"/>
<path style="fill:#666652; stroke:none;" d="M285 458L286 459L285 458M474 459L474 463L475 463L474 459z"/>
<path style="fill:#8a7b43; stroke:none;" d="M282 461L283 462L282 461z"/>
<path style="fill:#666652; stroke:none;" d="M334.333 461.667L334.667 462.333L334.333 461.667z"/>
<path style="fill:#8a7b43; stroke:none;" d="M334 463L334 470L335 470L334 463z"/>
<path style="fill:#666652; stroke:none;" d="M105.333 464.667L105.667 465.333L105.333 464.667M334.333 470.667L334.667 471.333L334.333 470.667z"/>
<path style="fill:#8a7b43; stroke:none;" d="M282 472L283 473L282 472z"/>
<path style="fill:#666652; stroke:none;" d="M514 472L514 475L515 475L516 472L514 472z"/>
<path style="fill:#8a7b43; stroke:none;" d="M331 474L332 475L331 474z"/>
<path style="fill:#666652; stroke:none;" d="M94 475C94.1173 479.964 97.2141 484.447 102 486L94 475z"/>
<path style="fill:#8a7b43; stroke:none;" d="M287.667 475.333L288.333 475.667L287.667 475.333z"/>
<path style="fill:#666652; stroke:none;" d="M128 477L122 486C125.707 484.228 129.154 481.414 128 477M296.667 477.333L297.333 477.667L296.667 477.333z"/>
<path style="fill:#8a7b43; stroke:none;" d="M298 477L298 478L304 478L298 477M315 477L315 478L320 478L315 477z"/>
<path style="fill:#666652; stroke:none;" d="M320 477L320 478L323 478L320 477z"/>
<path style="fill:#8a7b43; stroke:none;" d="M358 477C365.64 505.51 369.833 532.387 364.679 562C362.693 573.413 357.331 583.8 355 595C362.308 592.276 376.832 591.708 381.925 585.501C388.604 577.36 390.867 561.136 391.004 551C391.359 524.686 385.207 490.186 358 477M114 491L118 481C106.744 474.734 104.119 487.952 114 491M263 595C259.722 580.501 253.435 566.986 251.3 552C247.7 526.731 251.486 502.368 258 478C231.185 490.505 225.959 524.401 226 550C226.016 560.217 229.01 577.943 236.418 585.61C242.255 591.65 255.099 593.189 263 595M499 482L504 490L507 482L499 482M127.109 507.743C118.925 511.199 124.085 525.691 132.956 522.253C142.338 518.617 136.655 503.711 127.109 507.743M482.189 507.704C473.285 511.128 479.634 526.336 488.945 522.061C498.375 517.731 491.29 504.204 482.189 507.704z"/>
<path style="fill:#666652; stroke:none;" d="M138 512L138 517L139 517L138 512M122 513L122 517L123 517L122 513M137.333 518.667L137.667 519.333L137.333 518.667M189 518L189 528L190 528L189 518M225 533L225 547L226 547L225 533M391 544L391 553L392 553L391 544z"/>
</svg>
