<?xml version="1.0" encoding="UTF-8"?>
<!-- Generator: visioncortex VTracer 0.6.3 -->
<svg version="1.1" xmlns="http://www.w3.org/2000/svg" width="585" height="585">
<path d="M0 0 C1.53 0 1.53 0 3.09 0.01 C17.74 0.06 32.04 0.39 46.44 3.31 C47.49 3.52 48.55 3.72 49.64 3.93 C69.47 7.82 88.11 13.45 106.69 21.38 C107.63 21.77 108.57 22.17 109.54 22.58 C115.62 25.26 121.04 28.45 126.44 32.31 C122.19 39.04 117.88 45.72 113.44 52.31 C109.12 51.02 105.24 49.29 101.22 47.29 C46.15 19.93 -19.07 19.09 -76.81 37.98 C-107.01 48.73 -134.66 64.93 -158.56 86.31 C-159.12 86.81 -159.69 87.31 -160.27 87.83 C-166.09 93.03 -171.85 98.25 -176.84 104.27 C-178.62 106.38 -180.46 108.42 -182.31 110.47 C-198.43 128.58 -211.46 149.3 -221.56 171.31 C-221.89 172.03 -222.22 172.74 -222.56 173.48 C-237.27 205.79 -244.03 240.78 -243.81 276.19 C-243.81 277.01 -243.81 277.83 -243.81 278.68 C-243.78 290.98 -243.32 303.12 -241.56 315.31 C-246.85 317.37 -252.07 319.1 -257.56 320.5 C-258.24 320.68 -258.92 320.85 -259.62 321.04 C-261.27 321.47 -262.91 321.89 -264.56 322.31 C-268.95 307.84 -268.91 293 -268.88 278.01 C-268.88 274.78 -268.9 271.55 -268.92 268.33 C-268.98 249.61 -267.1 231.27 -262.94 213 C-262.69 211.89 -262.43 210.78 -262.18 209.63 C-256.26 184.62 -246.32 160.59 -233.56 138.31 C-232.96 137.27 -232.96 137.27 -232.35 136.2 C-222.65 119.4 -210.94 104.49 -198.06 90.02 C-197 88.81 -195.95 87.57 -194.92 86.33 C-194.39 85.69 -193.86 85.04 -193.31 84.38 C-192.83 83.8 -192.35 83.21 -191.86 82.6 C-190.56 81.31 -190.56 81.31 -188.56 81.31 C-188.35 80.76 -188.13 80.22 -187.91 79.65 C-186.1 76.5 -183.61 74.28 -180.94 71.88 C-180.36 71.35 -179.79 70.83 -179.19 70.29 C-161.3 54.22 -141.85 40.55 -120.56 29.31 C-119.62 28.81 -119.62 28.81 -118.67 28.29 C-82.23 8.77 -41.12 -0.16 0 0 Z " fill="#000000" transform="translate(306.5625,14.6875)"/>
<path d="M0 0 C14.72 1 29.15 10.48 39 21 C44.1 27.64 49 35.38 49 44 C50.2 44.23 51.39 44.45 52.62 44.69 C65.29 47.59 75.16 52.63 85.9 59.66 C89.46 61.93 93.1 64.06 96.75 66.19 C97.46 66.6 98.16 67.02 98.89 67.44 C102.15 69.35 105.42 71.24 108.7 73.11 C109.79 73.74 110.88 74.36 112 75 C112.95 75.54 113.9 76.07 114.88 76.62 C117 78 117 78 118 80 C118.06 86.67 116.77 92.46 113 98 C111.06 99.88 111.06 99.88 109 101 C108.3 101.39 107.6 101.78 106.88 102.19 C100.64 103.95 94.52 103.17 88.25 101.94 C80.53 100.53 72.96 101.21 65.24 102.44 C57.44 103.61 51.97 101.4 45.31 97.38 C40.69 92.62 36.82 87 34 81 C36.05 91.63 39.72 99.84 48 107 C48.99 107.33 49.98 107.66 51 108 C47.15 137.06 41.62 159.1 18.6 178.52 C16.89 179.93 16.89 179.93 16 182 C18.99 189.63 23.51 196.73 27.84 203.66 C31.64 209.82 34.87 215.3 33.7 222.74 C32.42 226.89 29.88 229.82 27 233 C26.45 233.63 25.9 234.26 25.33 234.91 C20.05 240.61 13.57 244.66 5.69 245.25 C1.61 244.97 -0.6 244.24 -4 242 C-6.93 238.59 -7.53 235.49 -7.36 231 C-6.63 226.91 -4.42 224.04 -1.12 221.62 C1.64 220.81 4.14 220.87 7 221 C3.52 215.23 -0.5 210.17 -4.94 205.12 C-9.92 199.42 -14.34 193.66 -18 187 C-18.36 186.36 -18.72 185.73 -19.09 185.07 C-22.82 177.09 -22.17 166.51 -19.5 158.31 C-16.89 152.02 -12.96 146.51 -9 141 C-18.09 146.25 -24.73 153.05 -28.34 163.07 C-31.54 177.28 -27.74 189.15 -20.17 201.2 C-19.79 201.79 -19.4 202.39 -19 203 C-20.02 203.58 -21.03 204.17 -22.08 204.77 C-34.23 211.93 -43.09 220.31 -52.23 231 C-57.7 237.18 -63.69 242.86 -69.94 248.23 C-74.03 251.74 -78.03 255.35 -82 259 C-82.77 259.7 -83.53 260.4 -84.32 261.12 C-93.56 269.91 -107.56 286.85 -108.1 300.48 C-108.09 301.37 -108.07 302.27 -108.06 303.19 C-108.05 304.54 -108.05 304.54 -108.04 305.92 C-108.02 306.61 -108.01 307.29 -108 308 C-106.93 308.56 -105.86 309.12 -104.76 309.7 C-100.52 311.92 -96.28 314.15 -92.05 316.39 C-89.94 317.5 -87.83 318.61 -85.71 319.72 C-82.28 321.51 -78.86 323.32 -75.44 325.12 C-74.36 325.69 -73.28 326.25 -72.16 326.82 C-52.68 337.18 -34.41 354.74 -27 376 C-26.67 378.97 -26.34 381.94 -26 385 C-32.27 382.03 -38.54 379.06 -45 376 C-45 379.61 -44.04 382.56 -43 386 C-56.71 383.21 -68.93 376.36 -80 368 C-81.48 366.91 -82.96 365.82 -84.45 364.73 C-90.36 360.39 -96.25 356.04 -102.14 351.67 C-109.59 346.19 -117.27 341.07 -125 336 C-125.61 335.6 -126.22 335.2 -126.84 334.79 C-133.92 330.16 -141.07 325.71 -148.48 321.61 C-151.09 319.95 -153.05 318.4 -155 316 C-154.49 308.39 -150.67 301.99 -147.22 295.33 C-143.91 288.93 -140.89 282.38 -137.86 275.84 C-137.14 274.3 -136.4 272.76 -135.67 271.22 C-129.4 257.96 -124.53 244.13 -120.44 230.06 C-117.39 219.64 -113.83 209.62 -107 201 C-123.89 212.91 -128.58 228.91 -134 248 C-153.72 249.02 -171.7 243.98 -187 231 C-187.26 231.85 -187.51 232.71 -187.77 233.59 C-199.89 267.32 -231.68 297.79 -263 314 C-264.07 314.56 -265.14 315.11 -266.24 315.68 C-289.47 327.05 -314.42 330.23 -340 330.25 C-340.74 330.25 -341.49 330.25 -342.25 330.25 C-375.21 330.2 -410.85 326.04 -441 312 C-441 311.01 -441 310.02 -441 309 C-433.14 306.08 -425.18 304.56 -416.94 303.19 C-416.19 303.06 -415.44 302.94 -414.67 302.8 C-396.56 299.78 -378.3 297.96 -360.02 296.18 C-327.9 293 -293.88 288.57 -269 266 C-268.19 265.32 -267.37 264.63 -266.54 263.93 C-244.44 244.96 -232.42 218.03 -219.75 192.44 C-209.05 170.86 -196.51 151.64 -180 134 C-179.55 133.51 -179.09 133.01 -178.62 132.5 C-167.03 119.99 -153.39 109.44 -138 102 C-136.39 101.16 -136.39 101.16 -134.74 100.3 C-105.06 85.24 -69.91 82.98 -38.29 93.09 C-33.61 94.63 -28.94 96.23 -24.29 97.84 C-9.2 103.58 -9.2 103.58 6.31 101.5 C13.64 97.08 15.66 89.54 17.63 81.64 C18.17 79.4 18.7 77.15 19.23 74.91 C21.2 67 24.07 60.14 28 53 C27.39 52.62 26.78 52.24 26.16 51.85 C12.61 43.35 5.18 32.37 1 17 C-0.17 11.34 -0.1 5.76 0 0 Z M-155 159 C-151.24 159 -149.95 157.84 -146.81 155.81 C-132.07 146.96 -113 143.16 -96.03 146.72 C-81.07 150.76 -69.49 158.68 -61.47 172.16 C-56.93 180.93 -54.8 189.27 -54.81 199.12 C-54.81 199.88 -54.81 200.63 -54.81 201.4 C-54.87 207.44 -55.63 213.12 -57 219 C-57.34 220.67 -57.67 222.33 -58 224 C-54.75 221.04 -52.82 218.18 -50.88 214.25 C-50.38 213.27 -49.88 212.28 -49.37 211.27 C-44.28 199.11 -44.32 185.27 -48.75 172.91 C-55.48 157.19 -67.39 145.42 -83.06 138.69 C-111.08 128.46 -135.43 138.45 -155 159 Z M-70 348 C-66.81 352.33 -63.14 355.62 -59 359 C-58.34 358.67 -57.68 358.34 -57 358 C-58.79 356.33 -60.58 354.66 -62.38 353 C-62.88 352.52 -63.39 352.05 -63.91 351.55 C-66.53 348.84 -66.53 348.84 -70 348 Z " fill="#000000" transform="translate(444,86)"/>
<path d="M0 0 C2.82 2.82 3.5 3.73 4.65 7.3 C4.93 8.16 5.21 9.03 5.5 9.92 C5.93 11.32 5.93 11.32 6.38 12.75 C6.68 13.72 6.98 14.69 7.3 15.69 C14.78 40.26 18.23 65.06 18.25 90.69 C18.25 91.5 18.25 92.31 18.25 93.15 C18.21 143.01 3.99 194.48 -24 236 C-24.45 236.68 -24.91 237.36 -25.38 238.07 C-30.9 246.34 -36.57 254.4 -43 262 C-43.49 262.58 -43.98 263.15 -44.48 263.75 C-53.08 273.88 -61.88 283.36 -72 292 C-72.92 292.81 -73.85 293.62 -74.8 294.46 C-123.39 336.88 -187.1 360.28 -251.5 360.19 C-252.25 360.19 -253 360.19 -253.77 360.19 C-265.62 360.16 -277.28 359.78 -289 358 C-289.84 357.88 -290.68 357.75 -291.54 357.63 C-343.09 349.76 -392.97 328.14 -431 292 C-432.35 290.83 -433.7 289.66 -435.06 288.5 C-448.06 277.17 -448.06 277.17 -452 270 C-445.88 264.36 -439.65 259 -433 254 C-433.36 253.58 -433.73 253.15 -434.1 252.71 C-435.16 251.48 -436.22 250.24 -437.28 249 C-438.39 247.71 -439.5 246.43 -440.63 245.15 C-441.4 244.27 -441.4 244.27 -442.19 243.38 C-442.66 242.85 -443.12 242.32 -443.61 241.77 C-445.29 239.63 -446.61 237.34 -448 235 C-446.78 234.88 -446.78 234.88 -445.54 234.76 C-424.13 232.59 -403.49 228.83 -382.58 223.78 C-375.92 222.32 -369.55 221.85 -362.77 221.84 C-361.42 221.83 -361.42 221.83 -360.04 221.82 C-357.09 221.81 -354.13 221.8 -351.18 221.8 C-350.16 221.79 -349.14 221.79 -348.1 221.79 C-342.72 221.77 -337.35 221.76 -331.97 221.76 C-326.44 221.75 -320.92 221.73 -315.39 221.7 C-311.12 221.68 -306.84 221.68 -302.57 221.68 C-300.54 221.67 -298.5 221.67 -296.46 221.65 C-266.59 221.47 -247.25 234.05 -224.08 251.69 C-193.78 275.06 -193.78 275.06 -157.43 283.51 C-156.38 283.53 -155.33 283.55 -154.24 283.57 C-150.93 283.62 -147.62 283.65 -144.31 283.69 C-142.05 283.72 -139.79 283.76 -137.53 283.79 C-132.02 283.88 -126.51 283.94 -121 284 C-121.47 280.94 -121.95 277.89 -122.42 274.83 C-122.55 273.97 -122.69 273.11 -122.82 272.22 C-125.07 257.82 -130.15 244.86 -139.71 233.67 C-141 232 -141 232 -141 230 C-141.66 230 -142.32 230 -143 230 C-144.28 228.52 -145.57 227.04 -146.78 225.51 C-148.07 223.86 -148.07 223.86 -150 222 C-115.02 221.67 -80.04 221.34 -44 221 C-25.83 188.29 -11.83 154.55 -8 117 C-7.81 115.15 -7.81 115.15 -7.61 113.26 C-4.7 78.33 -9.59 45.16 -20.44 11.96 C-21 10 -21 10 -21 8 C-14.07 5.36 -7.14 2.72 0 0 Z M-435 248 C-434.67 248.99 -434.34 249.98 -434 251 C-434 250.01 -434 249.02 -434 248 C-434.33 248 -434.66 248 -435 248 Z M-428 258 C-427.34 258.66 -426.68 259.32 -426 260 C-426 259.34 -426 258.68 -426 258 C-426.66 258 -427.32 258 -428 258 Z M-426 260 C-425.34 260.66 -424.68 261.32 -424 262 C-424 261.34 -424 260.68 -424 260 C-424.66 260 -425.32 260 -426 260 Z M-423 263 C-423 263.66 -423 264.32 -423 265 C-422.34 264.67 -421.68 264.34 -421 264 C-421.66 263.67 -422.32 263.34 -423 263 Z M-389 265 C-389.33 267.31 -389.66 269.62 -390 272 C-383.44 274.4 -377.23 274.25 -370.3 274.17 C-369.04 274.16 -367.77 274.15 -366.47 274.15 C-363.01 274.13 -359.56 274.1 -356.11 274.07 C-352.49 274.03 -348.87 274.01 -345.25 273.99 C-339.18 273.94 -333.11 273.89 -327.04 273.83 C-320.02 273.77 -313 273.72 -305.97 273.67 C-299.22 273.63 -292.46 273.58 -285.7 273.52 C-282.82 273.5 -279.95 273.47 -277.07 273.46 C-273.07 273.43 -269.06 273.39 -265.05 273.35 C-263.85 273.35 -262.65 273.34 -261.42 273.33 C-260.33 273.32 -259.25 273.31 -258.13 273.29 C-257.18 273.28 -256.23 273.28 -255.26 273.27 C-252.8 273.21 -252.8 273.21 -251 271 C-251.17 268.42 -251.17 268.42 -252 266 C-254.59 264.7 -256.46 264.88 -259.37 264.88 C-261.07 264.88 -261.07 264.88 -262.82 264.88 C-264.07 264.88 -265.33 264.88 -266.62 264.89 C-267.94 264.89 -269.25 264.89 -270.61 264.89 C-274.23 264.89 -277.85 264.89 -281.46 264.9 C-285.24 264.9 -289.02 264.91 -292.8 264.91 C-299.96 264.91 -307.11 264.92 -314.27 264.93 C-322.42 264.94 -330.57 264.94 -338.71 264.95 C-355.48 264.96 -372.24 264.98 -389 265 Z M-284 291 C-283.99 293.06 -283.99 293.06 -283 295 C-279.39 297.55 -275.5 297.28 -271.25 297.26 C-270.47 297.26 -269.7 297.27 -268.9 297.27 C-266.34 297.28 -263.78 297.27 -261.21 297.27 C-259.43 297.27 -257.65 297.27 -255.87 297.27 C-252.14 297.27 -248.41 297.27 -244.68 297.26 C-239.9 297.25 -235.12 297.26 -230.33 297.27 C-226.66 297.28 -222.98 297.27 -219.3 297.27 C-217.54 297.27 -215.77 297.27 -214.01 297.27 C-211.55 297.28 -209.08 297.27 -206.62 297.26 C-205.52 297.26 -205.52 297.26 -204.41 297.27 C-200.71 297.24 -199.16 297.11 -196 295 C-195.75 292.42 -195.75 292.42 -196 290 C-200.1 288.05 -203.4 287.75 -207.93 287.76 C-208.94 287.75 -208.94 287.75 -209.98 287.75 C-212.21 287.75 -214.44 287.76 -216.67 287.77 C-218.23 287.77 -219.79 287.77 -221.35 287.77 C-224.62 287.77 -227.89 287.78 -231.16 287.79 C-235.33 287.81 -239.5 287.82 -243.67 287.81 C-246.89 287.81 -250.12 287.82 -253.34 287.83 C-254.88 287.83 -256.41 287.83 -257.95 287.83 C-271.92 286.66 -271.92 286.66 -284 291 Z " fill="#000000" transform="translate(559,201)"/>
</svg>
