<?xml version="1.0" standalone="yes"?>
<svg xmlns="http://www.w3.org/2000/svg" width="524" height="476">
  <path style="fill:#fcfcfc; stroke:none;" d="M413 35C406.213 50.2394 406.303 63.766 407 80L418 81L418 82C410.671 82.0607 402.76 83.3505 397 88.2137C393.42 91.2362 390.747 96.3506 386.741 98.6821C382.461 101.172 374.903 100.505 370 101.486C364.836 102.52 355.112 100.823 354.164 108.019C353.095 116.125 359.872 124.793 367 127.714C381.58 133.687 414.454 135.382 412.775 159C410.769 187.235 379.279 190.78 358 193.576C312.074 199.609 261.902 208.991 234.544 251C217.719 276.836 213.318 308.045 209.282 338C206.803 356.405 205.968 380.106 189.999 392.471C171.169 407.051 144.25 404.014 122 403.039C103.735 402.24 86.0522 403.457 68 405.714C54.9283 407.348 30.4738 413.253 24 426C42.7342 425.613 61.1637 422.215 80 423.039C135.777 425.482 220.768 442.153 241.576 371C244.975 359.377 246 348.061 246 336C253.465 336 260.7 336.081 268 337.899C300.221 345.921 292 389.558 292 414C292 422.334 290.818 431.982 296.558 438.891C302.66 446.236 314.496 445 323 445L389 445C387.614 418.332 340.687 426 323 426C321.353 409.475 315.293 394.026 316.039 377C317.422 345.475 352.549 287.46 308 271.055C303.103 269.251 298.23 268.066 293 268.004C285.361 267.913 279.107 269.262 272 272C292.978 244.004 339.978 254.226 348 288C355.547 287.844 376.088 285.878 380.142 278.443C382.324 274.44 381 267.444 381 263L382 263C384.406 272.203 387.64 280.834 394.174 287.985C401.04 295.501 410.275 300.895 413.79 311C417.431 321.468 409.26 340.644 415.894 348.682C421.056 354.937 428.105 347.172 429.62 342C433.493 328.781 430.009 309.625 422.931 298C417.351 288.837 405.077 277.092 408.318 265.09C410.287 257.799 424.662 249.551 429.961 244C441.001 232.433 450.442 215.963 455.986 200.961C464.196 178.743 467.504 151.03 460.795 128C458.59 120.432 456.283 113.06 452.753 106C450.935 102.364 446.565 97.0859 446.431 93C446.271 88.0854 452.665 82.2211 454.63 77.7145C459.129 67.4013 460 57.0836 460 46C441.68 50.2018 436.783 67.1767 427 80C426.671 64.0599 421.026 49.473 415 35L413 35z"/>
  <path style="fill:#020202; stroke:none;" d="M405 100C407.132 106.389 412.863 104.602 418 103C416.109 97.3017 409.803 99.1083 405 100z"/>
  <path style="fill:#fcfcfc; stroke:none;" d="M443 252L431 272C441.049 278.641 454.174 286.037 458.451 298C461.223 305.754 456.211 323.137 464.275 327.968C475.924 334.946 475.019 312.055 474.066 307C469.84 284.584 452.547 271.649 443 252M332 329C337.357 347.74 338.465 364.413 337.985 384C337.73 394.401 334.443 406.784 341.652 415.867C347.535 423.278 359.539 423 368 423L432 423C429.682 400.373 401.348 403 385 403C380.776 403 373.073 404.461 369.433 401.972C365.15 399.044 364.094 386.845 363.25 382C359.55 360.751 362.167 342.037 365 321L332 329z"/>
</svg>
