<?xml version="1.0" standalone="yes"?>
<svg xmlns="http://www.w3.org/2000/svg" width="787" height="74">
  <path style="fill:#101010; stroke:none;" d="M14 21L14 55C19.8021 55 28.7677 56.6587 33.3472 52.2315C41.078 44.7578 33.4389 35.4388 25 35C27.2707 42.089 30.3078 49.8471 22 54L23.3179 35.5177L35 23L24 21L24 22C27.5486 25.9206 25.7211 28.8815 22 32L22 21L14 21M53 21L53 55L62 55L61 46C66.0351 50.8175 68.508 54.6519 76 55L76 45C59.2368 46.1823 61 34.2001 61 21L53 21M64 21C66.7466 28.7375 67.5908 33.3055 64 41C79.1167 40.214 79.2361 21.9804 64 21M104 55C97.8735 43.2948 97.7644 32.989 103 21C85.7722 22.9188 86.9422 53.7139 104 55M107 21C111.959 33.6812 111.3 42.3879 107 55C122.846 50.2903 123.966 25.0336 107 21M132 21L140 55L148 55L141 21L132 21M151 21L159 55L167 55L160 21L151 21M203 55C209.723 54.6876 216.705 50.7963 212.821 43C208.591 34.5084 197.428 32.0225 202 21C200.358 21.0058 198.609 20.8818 196.98 21.1481C179.897 23.941 204.11 43.0824 205.253 47.9985C205.847 50.552 204.157 52.8836 203 55M204 21L212 26L212 21L204 21M231 21L231 55L252 55L252 50L237 54L240 39L246 41L246 36L240 38C240 28.884 242.241 21.0397 231 21M245 21L252 26L252 21L245 21M310 55C304.744 44.2142 303.926 31.6416 310 21C292.522 23.7761 292.638 52.2421 310 55M313 21C317.664 32.6815 318.908 43.4307 313 55C330.288 51.8666 330.28 24.3435 313 21M342 21C342 33.817 337.263 60.1295 358 54L358 53C346.697 51.2351 351 29.713 351 21L342 21M361 21L359 52L369 55L369 21L361 21M387 21L387 55L396 55L396 46L397 46C399.775 52.3052 403.101 54.9185 410 55L410 45C393.223 46.9795 396 33.5006 396 21L387 21M398 21C401.864 28.024 400.978 33.5233 399 41C413.67 39.4866 412.661 21.6813 398 21M457 21L457 55L466 55L465 46C470.035 50.8175 472.508 54.6519 480 55L480 45C463.237 46.1823 465 34.2 465 21L457 21M468 21C470.747 28.7375 471.591 33.3055 468 41C483.135 40.8299 483.381 21.9898 468 21M496 21L496 55L517 55L517 50L502 54L504.015 31L503.883 22.6034L496 21M510 21L517 26L517 21L510 21M534 21L534 55L555 55L555 50L540 54C544.097 44.2907 542 31.3956 542 21L534 21M579 21L587 55L597 55L587 21L579 21M608 21L608 26L615 21L608 21M617 21L617 55L625 55C625 45.4489 629.596 22.9506 617 21M627 21L634 26L634 21L627 21M650 21L650 55L660 55L659 21L650 21M677 21L685 55L693 55L686 21L677 21M719 21L719 55L740 55L740 50L725 54L727.015 31L726.883 22.6034L719 21M733 21L740 26L740 21L733 21M767 55C792.564 53.8289 761.546 31.7409 766 21C764.336 21.0356 762.655 20.9959 761.015 21.3403C744.245 24.8632 767.733 42.3821 769.114 47.9985C769.75 50.5865 768.169 52.8398 767 55M769 21L776 26L776 21L769 21M104 35L104 41L108 39L104 35M310 35L309 39L314 39L310 35M733 35L730 38L730 39L734 41L733 35M509 36L511 41L511 36L509 36M576.667 42.3333L577.333 42.6667L576.667 42.3333M191 50L191 55L198 55L191 50M755 50L755 55L762 55L755 50M569.667 54.3333L570.333 54.6667L569.667 54.3333z"/>
</svg>
